%TF.GenerationSoftware,KiCad,Pcbnew,(5.1.9-0-10_14)*%
%TF.CreationDate,2021-02-01T04:26:24+03:00*%
%TF.ProjectId,Terraforms,54657272-6166-46f7-926d-732e6b696361,rev?*%
%TF.SameCoordinates,Original*%
%TF.FileFunction,Soldermask,Top*%
%TF.FilePolarity,Negative*%
%FSLAX46Y46*%
G04 Gerber Fmt 4.6, Leading zero omitted, Abs format (unit mm)*
G04 Created by KiCad (PCBNEW (5.1.9-0-10_14)) date 2021-02-01 04:26:24*
%MOMM*%
%LPD*%
G01*
G04 APERTURE LIST*
%ADD10C,0.200000*%
%ADD11C,6.000000*%
G04 APERTURE END LIST*
D10*
X131264425Y-88125908D02*
X131904471Y-88125908D01*
X131904467Y-88537016D02*
X131904471Y-88125908D01*
X131774837Y-88814765D02*
X131904467Y-88537016D01*
X131519629Y-89090327D02*
X131774837Y-88814765D01*
X131264421Y-89228108D02*
X131519629Y-89090327D01*
X130754005Y-89228156D02*
X131264421Y-89228108D01*
X130498797Y-89090375D02*
X130754005Y-89228156D01*
X130243589Y-88814813D02*
X130498797Y-89090375D01*
X130113959Y-88537064D02*
X130243589Y-88814813D01*
X129988381Y-88125908D02*
X130113959Y-88537064D01*
X129988387Y-87434856D02*
X129988381Y-88125908D01*
X130113965Y-87023700D02*
X129988387Y-87434856D01*
X130243595Y-86748138D02*
X130113965Y-87023700D01*
X130498803Y-86472576D02*
X130243595Y-86748138D01*
X130754011Y-86332608D02*
X130498803Y-86472576D01*
X131264420Y-86332567D02*
X130754011Y-86332608D01*
X131519628Y-86472535D02*
X131264420Y-86332567D01*
X131774836Y-86748097D02*
X131519628Y-86472535D01*
X131904466Y-87023659D02*
X131774836Y-86748097D01*
X132925299Y-88677027D02*
X132795669Y-88537059D01*
X132795669Y-88814808D02*
X132925299Y-88677027D01*
X132670091Y-88677027D02*
X132795669Y-88814808D01*
X132795669Y-88537059D02*
X132670091Y-88677027D01*
X133946131Y-89090408D02*
X133690920Y-88814808D01*
X134326921Y-89228108D02*
X133946131Y-89090408D01*
X134837335Y-89228151D02*
X134326921Y-89228108D01*
X135222173Y-89090370D02*
X134837335Y-89228151D01*
X135477381Y-88814808D02*
X135222173Y-89090370D01*
X135477377Y-88401518D02*
X135477381Y-88814808D01*
X135347748Y-88125956D02*
X135477377Y-88401518D01*
X135222169Y-87985988D02*
X135347748Y-88125956D01*
X134966961Y-87850394D02*
X135222169Y-87985988D01*
X134201337Y-87574832D02*
X134966961Y-87850394D01*
X133946129Y-87434864D02*
X134201337Y-87574832D01*
X133816499Y-87299270D02*
X133946129Y-87434864D01*
X133690920Y-87023708D02*
X133816499Y-87299270D01*
X133690925Y-86748138D02*
X133690920Y-87023708D01*
X133946134Y-86472576D02*
X133690925Y-86748138D01*
X134326921Y-86332608D02*
X133946134Y-86472576D01*
X134837337Y-86332518D02*
X134326921Y-86332608D01*
X135222175Y-86472486D02*
X134837337Y-86332518D01*
X135477383Y-86748048D02*
X135222175Y-86472486D01*
X136368579Y-87299172D02*
X136368581Y-89228108D01*
X136368579Y-86196924D02*
X136243001Y-86332518D01*
X136498209Y-86332518D02*
X136368579Y-86196924D01*
X136368579Y-86472486D02*
X136498209Y-86332518D01*
X136243001Y-86332518D02*
X136368579Y-86472486D01*
X138795119Y-87850332D02*
X138795081Y-89228108D01*
X138669540Y-87434802D02*
X138795119Y-87850332D01*
X138410281Y-87299208D02*
X138669540Y-87434802D01*
X138029427Y-87299174D02*
X138410281Y-87299208D01*
X137774219Y-87434768D02*
X138029427Y-87299174D01*
X137389381Y-87850298D02*
X137774219Y-87434768D01*
X137389381Y-87299208D02*
X137389381Y-89228108D01*
X141217519Y-87850332D02*
X141217481Y-89228108D01*
X141091940Y-87434802D02*
X141217519Y-87850332D01*
X140832681Y-87299208D02*
X141091940Y-87434802D01*
X140451927Y-87299174D02*
X140832681Y-87299208D01*
X140196719Y-87434768D02*
X140451927Y-87299174D01*
X139811881Y-87850298D02*
X140196719Y-87434768D01*
X139811891Y-87299208D02*
X139811881Y-89228108D01*
X143129586Y-87299222D02*
X142744781Y-87299208D01*
X143384794Y-87434816D02*
X143129586Y-87299222D01*
X143640002Y-87714752D02*
X143384794Y-87434816D01*
X143765581Y-88125908D02*
X143640002Y-87714752D01*
X143765576Y-88401422D02*
X143765581Y-88125908D01*
X143639997Y-88814765D02*
X143765576Y-88401422D01*
X143384789Y-89090327D02*
X143639997Y-88814765D01*
X143129581Y-89228108D02*
X143384789Y-89090327D01*
X142744775Y-89228194D02*
X143129581Y-89228108D01*
X142493618Y-89090413D02*
X142744775Y-89228194D01*
X142234359Y-88814851D02*
X142493618Y-89090413D01*
X142108781Y-88401508D02*
X142234359Y-88814851D01*
X142108716Y-88125894D02*
X142108781Y-88401508D01*
X142234295Y-87714738D02*
X142108716Y-88125894D01*
X142493554Y-87434802D02*
X142234295Y-87714738D01*
X142744711Y-87299208D02*
X142493554Y-87434802D01*
X144405651Y-87299178D02*
X145296781Y-87299208D01*
X145167167Y-89228132D02*
X145426481Y-89228108D01*
X144916010Y-89090351D02*
X145167167Y-89228132D01*
X144786381Y-88677008D02*
X144916010Y-89090351D01*
X144786421Y-86332554D02*
X144786381Y-88677008D01*
X145936851Y-87299178D02*
X146828081Y-87299208D01*
X146698467Y-89228132D02*
X146957681Y-89228108D01*
X146447310Y-89090351D02*
X146698467Y-89228132D01*
X146317681Y-88677008D02*
X146447310Y-89090351D01*
X146317681Y-86332608D02*
X146317681Y-88677008D01*
X149890527Y-89919280D02*
X150145735Y-90190468D01*
X149635319Y-89503750D02*
X149890527Y-89919280D01*
X149380111Y-88952626D02*
X149635319Y-89503750D01*
X149250481Y-88265908D02*
X149380111Y-88952626D01*
X149250527Y-87714786D02*
X149250481Y-88265908D01*
X149380157Y-87023694D02*
X149250527Y-87714786D01*
X149635365Y-86472570D02*
X149380157Y-87023694D01*
X149890573Y-86061414D02*
X149635365Y-86472570D01*
X150145781Y-85781478D02*
X149890573Y-86061414D01*
X151036961Y-88265828D02*
X152317081Y-88265908D01*
X151677011Y-86332518D02*
X152697841Y-89228108D01*
X151676981Y-86332608D02*
X150656181Y-89228108D01*
X154739474Y-87299174D02*
X154739481Y-89228108D01*
X154354639Y-89090327D02*
X154739474Y-88676984D01*
X154103481Y-89228108D02*
X154354639Y-89090327D01*
X153718719Y-89228132D02*
X154103481Y-89228108D01*
X153463511Y-89090351D02*
X153718719Y-89228132D01*
X153333881Y-88677008D02*
X153463511Y-89090351D01*
X153333891Y-87299208D02*
X153333881Y-88677008D01*
X155505151Y-87299178D02*
X156396381Y-87299208D01*
X156266669Y-89228132D02*
X156525981Y-89228108D01*
X156015511Y-89090351D02*
X156266669Y-89228132D01*
X155885881Y-88677008D02*
X156015511Y-89090351D01*
X155885971Y-86332554D02*
X155885881Y-88677008D01*
X157927426Y-87299172D02*
X158308280Y-87299208D01*
X157672219Y-87434766D02*
X157927426Y-87299172D01*
X157417008Y-87714702D02*
X157672219Y-87434766D01*
X157287381Y-88125858D02*
X157417008Y-87714702D01*
X157287407Y-87299258D02*
X157287381Y-89228108D01*
X159078135Y-89919280D02*
X158822927Y-90190468D01*
X159333346Y-89503750D02*
X159078135Y-89919280D01*
X159588554Y-88952626D02*
X159333346Y-89503750D01*
X159718181Y-88265908D02*
X159588554Y-88952626D01*
X159718185Y-87714786D02*
X159718181Y-88265908D01*
X159588558Y-87023694D02*
X159718185Y-87714786D01*
X159333350Y-86472570D02*
X159588558Y-87023694D01*
X159078139Y-86061414D02*
X159333350Y-86472570D01*
X158822931Y-85781478D02*
X159078139Y-86061414D01*
X129733181Y-91800109D02*
X131519631Y-91800109D01*
X130624381Y-91800109D02*
X130624381Y-94695708D01*
X133306089Y-94557927D02*
X133561297Y-94282365D01*
X133050881Y-94695708D02*
X133306089Y-94557927D01*
X132666045Y-94695694D02*
X133050881Y-94695708D01*
X132414888Y-94557913D02*
X132666045Y-94695694D01*
X132155629Y-94282351D02*
X132414888Y-94557913D01*
X132030051Y-93869008D02*
X132155629Y-94282351D01*
X132030047Y-93593394D02*
X132030051Y-93869008D01*
X132155625Y-93182238D02*
X132030047Y-93593394D01*
X132414884Y-92902302D02*
X132155625Y-93182238D01*
X132666041Y-92766709D02*
X132414884Y-92902302D01*
X133050885Y-92766684D02*
X132666041Y-92766709D01*
X133306093Y-92902278D02*
X133050885Y-92766684D01*
X133435722Y-93042246D02*
X133306093Y-92902278D01*
X133561301Y-93317808D02*
X133435722Y-93042246D01*
X133561301Y-93593408D02*
X133561301Y-93317808D01*
X132030091Y-93593394D02*
X133561301Y-93593408D01*
X135092557Y-92766772D02*
X135473381Y-92766709D01*
X134837349Y-92902366D02*
X135092557Y-92766772D01*
X134582141Y-93182302D02*
X134837349Y-92902366D01*
X134452511Y-93593458D02*
X134582141Y-93182302D01*
X134452471Y-92766709D02*
X134452511Y-94695708D01*
X136753427Y-92766772D02*
X137134181Y-92766709D01*
X136498219Y-92902366D02*
X136753427Y-92766772D01*
X136243011Y-93182302D02*
X136498219Y-92902366D01*
X136113381Y-93593458D02*
X136243011Y-93182302D01*
X136113381Y-92766709D02*
X136113381Y-94695708D01*
X138924689Y-94557927D02*
X139179897Y-94282365D01*
X138669481Y-94695708D02*
X138924689Y-94557927D01*
X138284675Y-94695694D02*
X138669481Y-94695708D01*
X138033518Y-94557913D02*
X138284675Y-94695694D01*
X137774259Y-94282351D02*
X138033518Y-94557913D01*
X137648681Y-93869008D02*
X137774259Y-94282351D01*
X137648687Y-93593394D02*
X137648681Y-93869008D01*
X137774265Y-93182238D02*
X137648687Y-93593394D01*
X138033524Y-92902302D02*
X137774265Y-93182238D01*
X138284681Y-92766709D02*
X138033524Y-92902302D01*
X138669565Y-92766779D02*
X138284681Y-92766709D01*
X138924773Y-92902372D02*
X138669565Y-92766779D01*
X139179981Y-93182308D02*
X138924773Y-92902372D01*
X139179961Y-92766709D02*
X139179981Y-94695708D01*
X139945594Y-92766779D02*
X140836781Y-92766709D01*
X140326295Y-92351232D02*
X140326381Y-94695708D01*
X140455924Y-91940076D02*
X140326295Y-92351232D01*
X140707081Y-91800109D02*
X140455924Y-91940076D01*
X140966391Y-91800054D02*
X140707081Y-91800109D01*
X142623186Y-92766723D02*
X142238381Y-92766709D01*
X142878394Y-92902316D02*
X142623186Y-92766723D01*
X143133602Y-93182252D02*
X142878394Y-92902316D01*
X143259181Y-93593408D02*
X143133602Y-93182252D01*
X143259176Y-93869022D02*
X143259181Y-93593408D01*
X143133597Y-94282365D02*
X143259176Y-93869022D01*
X142878389Y-94557927D02*
X143133597Y-94282365D01*
X142623181Y-94695708D02*
X142878389Y-94557927D01*
X142238375Y-94695694D02*
X142623181Y-94695708D01*
X141987217Y-94557913D02*
X142238375Y-94695694D01*
X141727958Y-94282351D02*
X141987217Y-94557913D01*
X141602381Y-93869008D02*
X141727958Y-94282351D01*
X141602326Y-93593394D02*
X141602381Y-93869008D01*
X141727905Y-93182238D02*
X141602326Y-93593394D01*
X141987164Y-92902302D02*
X141727905Y-93182238D01*
X142238321Y-92766709D02*
X141987164Y-92902302D01*
X144790427Y-92766772D02*
X145171181Y-92766709D01*
X144535219Y-92902366D02*
X144790427Y-92766772D01*
X144280011Y-93182302D02*
X144535219Y-92902366D01*
X144150381Y-93593458D02*
X144280011Y-93182302D01*
X144150381Y-92766709D02*
X144150381Y-94695708D01*
X148622618Y-93317832D02*
X148622581Y-94695708D01*
X148492989Y-92902302D02*
X148622618Y-93317832D01*
X148237781Y-92766709D02*
X148492989Y-92902302D01*
X147852976Y-92766774D02*
X148237781Y-92766709D01*
X147601819Y-92902368D02*
X147852976Y-92766774D01*
X147216981Y-93317898D02*
X147601819Y-92902368D01*
X147216919Y-93317832D02*
X147216981Y-94695708D01*
X147091340Y-92902302D02*
X147216919Y-93317832D01*
X146832081Y-92766709D02*
X147091340Y-92902302D01*
X146451327Y-92766774D02*
X146832081Y-92766709D01*
X146196119Y-92902368D02*
X146451327Y-92766774D01*
X145811281Y-93317898D02*
X146196119Y-92902368D01*
X145811281Y-92766709D02*
X145811281Y-94695708D01*
X149639381Y-94557908D02*
X149513781Y-94282308D01*
X150024281Y-94695708D02*
X149639381Y-94557908D01*
X150409065Y-94695651D02*
X150024281Y-94695708D01*
X150789852Y-94557870D02*
X150409065Y-94695651D01*
X150919481Y-94282308D02*
X150789852Y-94557870D01*
X150919534Y-94144518D02*
X150919481Y-94282308D01*
X150789905Y-93868956D02*
X150919534Y-94144518D01*
X150534697Y-93733362D02*
X150789905Y-93868956D01*
X149898702Y-93593394D02*
X150534697Y-93733362D01*
X149639443Y-93453426D02*
X149898702Y-93593394D01*
X149513865Y-93182238D02*
X149639443Y-93453426D01*
X149639443Y-92902302D02*
X149513865Y-93182238D01*
X150024281Y-92766709D02*
X149639443Y-92902302D01*
X150409081Y-92766709D02*
X150024281Y-92766709D01*
X150789881Y-92902308D02*
X150409081Y-92766709D01*
X150919481Y-93182208D02*
X150789881Y-92902308D01*
X154237228Y-94695656D02*
X153341981Y-94695708D01*
X154622066Y-94557875D02*
X154237228Y-94695656D01*
X154873224Y-94282313D02*
X154622066Y-94557875D01*
X155002854Y-94004564D02*
X154873224Y-94282313D01*
X155132481Y-93593408D02*
X155002854Y-94004564D01*
X155132434Y-92902356D02*
X155132481Y-93593408D01*
X155002807Y-92491200D02*
X155132434Y-92902356D01*
X154873177Y-92215638D02*
X155002807Y-92491200D01*
X154622019Y-91940076D02*
X154873177Y-92215638D01*
X154237181Y-91800109D02*
X154622019Y-91940076D01*
X153341981Y-91800118D02*
X154237181Y-91800109D01*
X153341955Y-91800126D02*
X153341981Y-94695708D01*
X156153293Y-94557927D02*
X155898085Y-94282365D01*
X156534081Y-94695708D02*
X156153293Y-94557927D01*
X157044535Y-94695651D02*
X156534081Y-94695708D01*
X157429373Y-94557870D02*
X157044535Y-94695651D01*
X157684580Y-94282308D02*
X157429373Y-94557870D01*
X157684538Y-93869018D02*
X157684580Y-94282308D01*
X157554908Y-93593456D02*
X157684538Y-93869018D01*
X157429329Y-93453488D02*
X157554908Y-93593456D01*
X157174122Y-93317894D02*
X157429329Y-93453488D01*
X156408499Y-93042333D02*
X157174122Y-93317894D01*
X156153288Y-92902364D02*
X156408499Y-93042333D01*
X156023661Y-92766771D02*
X156153288Y-92902364D01*
X155898081Y-92491208D02*
X156023661Y-92766771D01*
X155898085Y-92215638D02*
X155898081Y-92491208D01*
X156153293Y-91940076D02*
X155898085Y-92215638D01*
X156534081Y-91800109D02*
X156153293Y-91940076D01*
X157044471Y-91800116D02*
X156534081Y-91800109D01*
X157429309Y-91940084D02*
X157044471Y-91800116D01*
X157684517Y-92215646D02*
X157429309Y-91940084D01*
X159215627Y-93042336D02*
X160366087Y-94695706D01*
X160366091Y-91800118D02*
X158575581Y-93733428D01*
X158575581Y-91800116D02*
X158575581Y-94695708D01*
X161386968Y-94144584D02*
X161257341Y-94004616D01*
X161257341Y-94282365D02*
X161386968Y-94144584D01*
X161131761Y-94144584D02*
X161257341Y-94282365D01*
X161257341Y-94004616D02*
X161131761Y-94144584D01*
X162278281Y-91800109D02*
X162278281Y-94695708D01*
X165470327Y-95386780D02*
X165725535Y-95657968D01*
X165215119Y-94971250D02*
X165470327Y-95386780D01*
X164959908Y-94420126D02*
X165215119Y-94971250D01*
X164830281Y-93733408D02*
X164959908Y-94420126D01*
X164830227Y-93182306D02*
X164830281Y-93733408D01*
X166746408Y-92080020D02*
X166876038Y-91940053D01*
X166616781Y-92351208D02*
X166746408Y-92080020D01*
X166616791Y-92491200D02*
X166616781Y-92351208D01*
X170064058Y-91800093D02*
X169808781Y-91800109D01*
X170448896Y-91940061D02*
X170064058Y-91800093D01*
X170700051Y-92351217D02*
X170448896Y-91940061D01*
X170829681Y-93042308D02*
X170700051Y-92351217D01*
X170829604Y-93453492D02*
X170829681Y-93042308D01*
X170699974Y-94144584D02*
X170829604Y-93453492D01*
X170448819Y-94557927D02*
X170699974Y-94144584D01*
X170063981Y-94695708D02*
X170448819Y-94557927D01*
X169808807Y-94695624D02*
X170063981Y-94695708D01*
X169428019Y-94557843D02*
X169808807Y-94695624D01*
X169168761Y-94144500D02*
X169428019Y-94557843D01*
X169043181Y-93453408D02*
X169168761Y-94144500D01*
X169043215Y-93042333D02*
X169043181Y-93453408D01*
X169168795Y-92351242D02*
X169043215Y-93042333D01*
X169428053Y-91940086D02*
X169168795Y-92351242D01*
X169808841Y-91800118D02*
X169428053Y-91940086D01*
X171595355Y-94695636D02*
X173381881Y-94695708D01*
X172871395Y-93317826D02*
X171595355Y-94695636D01*
X173126603Y-92902296D02*
X172871395Y-93317826D01*
X173252181Y-92631108D02*
X173126603Y-92902296D01*
X173252197Y-92351232D02*
X173252181Y-92631108D01*
X173126619Y-92080045D02*
X173252197Y-92351232D01*
X173001041Y-91940076D02*
X173126619Y-92080045D01*
X172741781Y-91800109D02*
X173001041Y-91940076D01*
X172231396Y-91800084D02*
X172741781Y-91800109D01*
X171980238Y-91940053D02*
X172231396Y-91800084D01*
X171850608Y-92080020D02*
X171980238Y-91940053D01*
X171720981Y-92351208D02*
X171850608Y-92080020D01*
X171721021Y-92491208D02*
X171720981Y-92351208D01*
X175168423Y-91800104D02*
X175168481Y-94695708D01*
X174783585Y-92215635D02*
X175168423Y-91800104D01*
X174532427Y-92351228D02*
X174783585Y-92215635D01*
X176954735Y-95386780D02*
X176699527Y-95657968D01*
X177209946Y-94971250D02*
X176954735Y-95386780D01*
X177465154Y-94420126D02*
X177209946Y-94971250D01*
X177594781Y-93733408D02*
X177465154Y-94420126D01*
X177594835Y-93182216D02*
X177594781Y-93733408D01*
X177465208Y-92491124D02*
X177594835Y-93182216D01*
X176699581Y-91248908D02*
X176954789Y-91528844D01*
X176954789Y-91528844D02*
X177210000Y-91940000D01*
X164959854Y-92491214D02*
X164830227Y-93182306D01*
X165215065Y-91940090D02*
X164959854Y-92491214D01*
X165470273Y-91528934D02*
X165215065Y-91940090D01*
X165725481Y-91248998D02*
X165470273Y-91528934D01*
X166491255Y-94695636D02*
X168277681Y-94695708D01*
X167767295Y-93317826D02*
X166491255Y-94695636D01*
X168022503Y-92902296D02*
X167767295Y-93317826D01*
X168148081Y-92631108D02*
X168022503Y-92902296D01*
X168148097Y-92351232D02*
X168148081Y-92631108D01*
X168022519Y-92080045D02*
X168148097Y-92351232D01*
X167896941Y-91940076D02*
X168022519Y-92080045D01*
X167637681Y-91800109D02*
X167896941Y-91940076D01*
X167127196Y-91800084D02*
X167637681Y-91800109D01*
X166876038Y-91940053D02*
X167127196Y-91800084D01*
X177210000Y-91940000D02*
X177465208Y-92491124D01*
D11*
%TO.C,REF\u002A\u002A*%
X125130000Y-80210000D03*
X183130000Y-103210000D03*
X125130000Y-103210000D03*
X183130000Y-80210000D03*
%TD*%
M02*
