%TF.GenerationSoftware,KiCad,Pcbnew,(5.1.9-0-10_14)*%
%TF.CreationDate,2021-02-01T04:26:24+03:00*%
%TF.ProjectId,Terraforms,54657272-6166-46f7-926d-732e6b696361,rev?*%
%TF.SameCoordinates,Original*%
%TF.FileFunction,Soldermask,Bot*%
%TF.FilePolarity,Negative*%
%FSLAX46Y46*%
G04 Gerber Fmt 4.6, Leading zero omitted, Abs format (unit mm)*
G04 Created by KiCad (PCBNEW (5.1.9-0-10_14)) date 2021-02-01 04:26:24*
%MOMM*%
%LPD*%
G01*
G04 APERTURE LIST*
%ADD10C,0.200000*%
%ADD11C,6.000000*%
G04 APERTURE END LIST*
D10*
X131042800Y-100920000D02*
X131042800Y-99154310D01*
X130027300Y-102234420D02*
X128828790Y-103344170D01*
X128828790Y-103344170D02*
X128828790Y-104713570D01*
X131442530Y-94173574D02*
X130936763Y-94785468D01*
X130936763Y-94785468D02*
X130323767Y-95290328D01*
X130323767Y-95290328D02*
X129620197Y-95671529D01*
X129620197Y-95671529D02*
X128842710Y-95912445D01*
X128842710Y-95912445D02*
X128007960Y-95996450D01*
X128007960Y-95996450D02*
X127196124Y-95916273D01*
X127196124Y-95916273D02*
X126422888Y-95681730D01*
X126422888Y-95681730D02*
X125709981Y-95301805D01*
X125709981Y-95301805D02*
X125079131Y-94785482D01*
X125079131Y-94785482D02*
X124561874Y-94155771D01*
X124561874Y-94155771D02*
X124181264Y-93444153D01*
X124181264Y-93444153D02*
X123946299Y-92672317D01*
X123946299Y-92672317D02*
X123865980Y-91861950D01*
X123865980Y-91861950D02*
X123946299Y-91051584D01*
X123946299Y-91051584D02*
X124181264Y-90279747D01*
X124181264Y-90279747D02*
X124561874Y-89568129D01*
X124561874Y-89568129D02*
X125079131Y-88938418D01*
X125079131Y-88938418D02*
X125709981Y-88422095D01*
X125709981Y-88422095D02*
X126422888Y-88042170D01*
X126422888Y-88042170D02*
X127196124Y-87807627D01*
X127196124Y-87807627D02*
X128007960Y-87727450D01*
X128007960Y-87727450D02*
X128842710Y-87811455D01*
X128842710Y-87811455D02*
X129620197Y-88052371D01*
X129620197Y-88052371D02*
X130323767Y-88433572D01*
X130323767Y-88433572D02*
X130936763Y-88938432D01*
X130936763Y-88938432D02*
X131442530Y-89550326D01*
X129508340Y-91861450D02*
X129394110Y-92434698D01*
X129394110Y-92434698D02*
X129068810Y-92920675D01*
X129068810Y-92920675D02*
X128581964Y-93245394D01*
X128581964Y-93245394D02*
X128007690Y-93359420D01*
X128007690Y-93359420D02*
X127433416Y-93245394D01*
X127433416Y-93245394D02*
X126946570Y-92920675D01*
X126946570Y-92920675D02*
X126621270Y-92434698D01*
X126621270Y-92434698D02*
X126507040Y-91861450D01*
X126507040Y-91861450D02*
X126621270Y-91288202D01*
X126621270Y-91288202D02*
X126946570Y-90802225D01*
X126946570Y-90802225D02*
X127433416Y-90477506D01*
X127433416Y-90477506D02*
X128007690Y-90363480D01*
X128007690Y-90363480D02*
X128581964Y-90477506D01*
X128581964Y-90477506D02*
X129068810Y-90802225D01*
X129068810Y-90802225D02*
X129394110Y-91288202D01*
X129394110Y-91288202D02*
X129508340Y-91861450D01*
X129508340Y-91861450D02*
X129508340Y-91861450D01*
X173928100Y-100920000D02*
X174180971Y-100835785D01*
X174180971Y-100835785D02*
X174265073Y-100751796D01*
X159503973Y-89579555D02*
X159484500Y-89786650D01*
X159410981Y-89079306D02*
X159503973Y-89579555D01*
X159155429Y-88667385D02*
X159410981Y-89079306D01*
X159421282Y-88589972D02*
X159155429Y-88667385D01*
X159828423Y-88767218D02*
X159421282Y-88589972D01*
X159997015Y-89195056D02*
X159828423Y-88767218D01*
X159848919Y-89598623D02*
X159997015Y-89195056D01*
X159484500Y-89786650D02*
X159848919Y-89598623D01*
X156994999Y-89786650D02*
X156995000Y-89786650D01*
X156630333Y-89598623D02*
X156994999Y-89786650D01*
X156482202Y-89195056D02*
X156630333Y-89598623D01*
X156650865Y-88767217D02*
X156482202Y-89195056D01*
X157057653Y-88589972D02*
X156650865Y-88767217D01*
X157324071Y-88667385D02*
X157057653Y-88589972D01*
X157068131Y-89079306D02*
X157324071Y-88667385D01*
X156974962Y-89579555D02*
X157068131Y-89079306D01*
X156995000Y-89786650D02*
X156974962Y-89579555D01*
X159340175Y-90230272D02*
X159484200Y-89786650D01*
X159064360Y-90586209D02*
X159340175Y-90230272D01*
X158687315Y-90822909D02*
X159064360Y-90586209D01*
X158239600Y-90908820D02*
X158687315Y-90822909D01*
X157791885Y-90822909D02*
X158239600Y-90908820D01*
X157414841Y-90586209D02*
X157791885Y-90822909D01*
X157139026Y-90230272D02*
X157414841Y-90586209D01*
X156995000Y-89786650D02*
X157139026Y-90230272D01*
X160451000Y-81011450D02*
X160451000Y-81011450D01*
X160299276Y-80250117D02*
X160451000Y-81011450D01*
X159867202Y-79604689D02*
X160299276Y-80250117D01*
X159220558Y-79173429D02*
X159867202Y-79604689D01*
X158457790Y-79021990D02*
X159220558Y-79173429D01*
X157695022Y-79173429D02*
X158457790Y-79021990D01*
X157048378Y-79604689D02*
X157695022Y-79173429D01*
X156616304Y-80250117D02*
X157048378Y-79604689D01*
X156464580Y-81011450D02*
X156616304Y-80250117D01*
X156621216Y-81785838D02*
X156464580Y-81011450D01*
X157048378Y-82418211D02*
X156621216Y-81785838D01*
X157681943Y-82844568D02*
X157048378Y-82418211D01*
X158457790Y-83000910D02*
X157681943Y-82844568D01*
X159220558Y-82849471D02*
X158457790Y-83000910D01*
X159867202Y-82418211D02*
X159220558Y-82849471D01*
X160299276Y-81772783D02*
X159867202Y-82418211D01*
X160451000Y-81011450D02*
X160299276Y-81772783D01*
X150353200Y-81011450D02*
X150353200Y-81011450D01*
X150201488Y-80250107D02*
X150353200Y-81011450D01*
X149769420Y-79604667D02*
X150201488Y-80250107D01*
X149122775Y-79173395D02*
X149769420Y-79604667D01*
X148360000Y-79021950D02*
X149122775Y-79173395D01*
X147597225Y-79173395D02*
X148360000Y-79021950D01*
X146950580Y-79604667D02*
X147597225Y-79173395D01*
X146518512Y-80250107D02*
X146950580Y-79604667D01*
X146366800Y-81011450D02*
X146518512Y-80250107D01*
X146523453Y-81785816D02*
X146366800Y-81011450D01*
X146950615Y-82418168D02*
X146523453Y-81785816D01*
X147584170Y-82844512D02*
X146950615Y-82418168D01*
X148360000Y-83000850D02*
X147584170Y-82844512D01*
X149135830Y-82844512D02*
X148360000Y-83000850D01*
X149769385Y-82418168D02*
X149135830Y-82844512D01*
X150196547Y-81785816D02*
X149769385Y-82418168D01*
X150353200Y-81011450D02*
X150196547Y-81785816D01*
X140255400Y-81011450D02*
X140255400Y-81011450D01*
X140103679Y-80250084D02*
X140255400Y-81011450D01*
X139671585Y-79604632D02*
X140103679Y-80250084D01*
X139024905Y-79173367D02*
X139671585Y-79604632D01*
X138262100Y-79021950D02*
X139024905Y-79173367D01*
X137499325Y-79173395D02*
X138262100Y-79021950D01*
X136852680Y-79604667D02*
X137499325Y-79173395D01*
X136420612Y-80250107D02*
X136852680Y-79604667D01*
X136268900Y-81011450D02*
X136420612Y-80250107D01*
X136425553Y-81785816D02*
X136268900Y-81011450D01*
X136852715Y-82418168D02*
X136425553Y-81785816D01*
X137486270Y-82844512D02*
X136852715Y-82418168D01*
X138262100Y-83000850D02*
X137486270Y-82844512D01*
X139024882Y-82849443D02*
X138262100Y-83000850D01*
X139671549Y-82418204D02*
X139024882Y-82849443D01*
X140103650Y-81772786D02*
X139671549Y-82418204D01*
X140255400Y-81011450D02*
X140103650Y-81772786D01*
X170548800Y-81011450D02*
X170548800Y-81011450D01*
X170397076Y-80250117D02*
X170548800Y-81011450D01*
X169965002Y-79604689D02*
X170397076Y-80250117D01*
X169318358Y-79173429D02*
X169965002Y-79604689D01*
X168555590Y-79021990D02*
X169318358Y-79173429D01*
X167792822Y-79173429D02*
X168555590Y-79021990D01*
X167146178Y-79604689D02*
X167792822Y-79173429D01*
X166714104Y-80250117D02*
X167146178Y-79604689D01*
X166562380Y-81011450D02*
X166714104Y-80250117D01*
X166719016Y-81785838D02*
X166562380Y-81011450D01*
X167146178Y-82418211D02*
X166719016Y-81785838D01*
X167779743Y-82844568D02*
X167146178Y-82418211D01*
X168555590Y-83000910D02*
X167779743Y-82844568D01*
X169318358Y-82849471D02*
X168555590Y-83000910D01*
X169965002Y-82418211D02*
X169318358Y-82849471D01*
X170397076Y-81772783D02*
X169965002Y-82418211D01*
X170548800Y-81011450D02*
X170397076Y-81772783D01*
X168803600Y-94893050D02*
X168803600Y-94893050D01*
X168651876Y-94131717D02*
X168803600Y-94893050D01*
X168219802Y-93486289D02*
X168651876Y-94131717D01*
X167573158Y-93055029D02*
X168219802Y-93486289D01*
X166810390Y-92903590D02*
X167573158Y-93055029D01*
X166047622Y-93055029D02*
X166810390Y-92903590D01*
X165400978Y-93486289D02*
X166047622Y-93055029D01*
X164968904Y-94131717D02*
X165400978Y-93486289D01*
X164817180Y-94893050D02*
X164968904Y-94131717D01*
X164973816Y-95667438D02*
X164817180Y-94893050D01*
X165400978Y-96299811D02*
X164973816Y-95667438D01*
X166034543Y-96726168D02*
X165400978Y-96299811D01*
X166810390Y-96882510D02*
X166034543Y-96726168D01*
X167573158Y-96731071D02*
X166810390Y-96882510D01*
X168219802Y-96299811D02*
X167573158Y-96731071D01*
X168651876Y-95654383D02*
X168219802Y-96299811D01*
X168803600Y-94893050D02*
X168651876Y-95654383D01*
X178139300Y-94893050D02*
X178139300Y-94893050D01*
X177987576Y-94131717D02*
X178139300Y-94893050D01*
X177555502Y-93486289D02*
X177987576Y-94131717D01*
X176908858Y-93055029D02*
X177555502Y-93486289D01*
X176146090Y-92903590D02*
X176908858Y-93055029D01*
X175383322Y-93055029D02*
X176146090Y-92903590D01*
X174736678Y-93486289D02*
X175383322Y-93055029D01*
X174304604Y-94131717D02*
X174736678Y-93486289D01*
X174152880Y-94893050D02*
X174304604Y-94131717D01*
X174309516Y-95667438D02*
X174152880Y-94893050D01*
X174736678Y-96299811D02*
X174309516Y-95667438D01*
X175370243Y-96726168D02*
X174736678Y-96299811D01*
X176146090Y-96882510D02*
X175370243Y-96726168D01*
X176908858Y-96731071D02*
X176146090Y-96882510D01*
X177555502Y-96299811D02*
X176908858Y-96731071D01*
X177987576Y-95654383D02*
X177555502Y-96299811D01*
X178139300Y-94893050D02*
X177987576Y-95654383D01*
X159926000Y-94893050D02*
X159926000Y-94893050D01*
X159792731Y-94224292D02*
X159926000Y-94893050D01*
X159413214Y-93657346D02*
X159792731Y-94224292D01*
X158845227Y-93278524D02*
X159413214Y-93657346D01*
X158175240Y-93145500D02*
X158845227Y-93278524D01*
X157505253Y-93278524D02*
X158175240Y-93145500D01*
X156937266Y-93657346D02*
X157505253Y-93278524D01*
X156557749Y-94224292D02*
X156937266Y-93657346D01*
X156424480Y-94893050D02*
X156557749Y-94224292D01*
X156557749Y-95561808D02*
X156424480Y-94893050D01*
X156937266Y-96128754D02*
X156557749Y-95561808D01*
X157505253Y-96507576D02*
X156937266Y-96128754D01*
X158175240Y-96640600D02*
X157505253Y-96507576D01*
X158845227Y-96507576D02*
X158175240Y-96640600D01*
X159413214Y-96128754D02*
X158845227Y-96507576D01*
X159792731Y-95561808D02*
X159413214Y-96128754D01*
X159926000Y-94893050D02*
X159792731Y-95561808D01*
X160426200Y-94893050D02*
X160426200Y-94893050D01*
X160254854Y-94033176D02*
X160426200Y-94893050D01*
X159766903Y-93304209D02*
X160254854Y-94033176D01*
X159036633Y-92817131D02*
X159766903Y-93304209D01*
X158175220Y-92646090D02*
X159036633Y-92817131D01*
X157313807Y-92817131D02*
X158175220Y-92646090D01*
X156583537Y-93304209D02*
X157313807Y-92817131D01*
X156095586Y-94033176D02*
X156583537Y-93304209D01*
X155924240Y-94893050D02*
X156095586Y-94033176D01*
X156095586Y-95752924D02*
X155924240Y-94893050D01*
X156583537Y-96481891D02*
X156095586Y-95752924D01*
X157313807Y-96968970D02*
X156583537Y-96481891D01*
X158175220Y-97140010D02*
X157313807Y-96968970D01*
X159036633Y-96968970D02*
X158175220Y-97140010D01*
X159766903Y-96481891D02*
X159036633Y-96968970D01*
X160254854Y-95752924D02*
X159766903Y-96481891D01*
X160426200Y-94893050D02*
X160254854Y-95752924D01*
X132149900Y-91861950D02*
X132149900Y-91861950D01*
X132065754Y-91028710D02*
X132149900Y-91861950D01*
X131824413Y-90252627D02*
X132065754Y-91028710D01*
X131442530Y-89550326D02*
X131824413Y-90252627D01*
X131824413Y-93471273D02*
X131442530Y-94173574D01*
X132065754Y-92695190D02*
X131824413Y-93471273D01*
X132149900Y-91861950D02*
X132065754Y-92695190D01*
X138144120Y-102234420D02*
X130027300Y-102234420D01*
X139342600Y-103344170D02*
X138144120Y-102234420D01*
X139342600Y-104713570D02*
X139342600Y-103344170D01*
X128828790Y-104713570D02*
X139342600Y-104713570D01*
X165755189Y-102933736D02*
X160501400Y-102933740D01*
X166531300Y-103730590D02*
X165755189Y-102933736D01*
X166531300Y-104713260D02*
X166531300Y-103730590D01*
X159725200Y-104713260D02*
X166531300Y-104713260D01*
X159725289Y-103730594D02*
X159725200Y-104713260D01*
X160501400Y-102933740D02*
X159725289Y-103730594D01*
X178278272Y-102933736D02*
X173024100Y-102933740D01*
X179054100Y-103730590D02*
X178278272Y-102933736D01*
X179054100Y-104713260D02*
X179054100Y-103730590D01*
X172248300Y-104713260D02*
X179054100Y-104713260D01*
X172248272Y-103730594D02*
X172248300Y-104713260D01*
X173024100Y-102933740D02*
X172248272Y-103730594D01*
X169737400Y-86852550D02*
X169108800Y-86852550D01*
X169737400Y-85015150D02*
X169737400Y-86852550D01*
X169107100Y-85015150D02*
X169737400Y-85015150D01*
X167336800Y-85015150D02*
X167964700Y-85015150D01*
X167336800Y-86852550D02*
X167336800Y-85015150D01*
X167966700Y-86852550D02*
X167336800Y-86852550D01*
X149836800Y-85015150D02*
X149836800Y-86852550D01*
X149163100Y-85015150D02*
X149163100Y-86852550D01*
X148489390Y-85933655D02*
X147141700Y-86789950D01*
X147141700Y-85077450D02*
X148489390Y-85933655D01*
X147141700Y-86789950D02*
X147141700Y-85077450D01*
X138657420Y-85933655D02*
X140005200Y-86789860D01*
X140005200Y-85077450D02*
X138657420Y-85933655D01*
X137359900Y-85933655D02*
X138707400Y-86789860D01*
X138707400Y-85077450D02*
X137359900Y-85933655D01*
X136686000Y-85015150D02*
X136686000Y-86852550D01*
X160292800Y-85015150D02*
X160292800Y-86852550D01*
X159619110Y-85933655D02*
X158271500Y-86789860D01*
X158271500Y-85077450D02*
X159619110Y-85933655D01*
X158321230Y-85933655D02*
X156973900Y-86789860D01*
X156973900Y-85077450D02*
X158321230Y-85933655D01*
X168781700Y-89623450D02*
X170297600Y-89623450D01*
X167349800Y-90632250D02*
X167349800Y-88866550D01*
X167349800Y-88866550D02*
X168360700Y-88866550D01*
X166254739Y-90632241D02*
X165917800Y-90632250D01*
X166423226Y-90548026D02*
X166254739Y-90632241D01*
X166591713Y-90380104D02*
X166423226Y-90548026D01*
X166676098Y-90211787D02*
X166591713Y-90380104D01*
X166760200Y-89959650D02*
X166676098Y-90211787D01*
X166760161Y-89539227D02*
X166760200Y-89959650D01*
X166676058Y-89286977D02*
X166760161Y-89539227D01*
X166591674Y-89118970D02*
X166676058Y-89286977D01*
X166423187Y-88950737D02*
X166591674Y-89118970D01*
X166254700Y-88866550D02*
X166423187Y-88950737D01*
X165917778Y-88866573D02*
X166254700Y-88866550D01*
X165749574Y-88950760D02*
X165917778Y-88866573D01*
X165581087Y-89118993D02*
X165749574Y-88950760D01*
X165496702Y-89287000D02*
X165581087Y-89118993D01*
X165412600Y-89539250D02*
X165496702Y-89287000D01*
X165412622Y-89959659D02*
X165412600Y-89539250D01*
X165496725Y-90211796D02*
X165412622Y-89959659D01*
X165581109Y-90380113D02*
X165496725Y-90211796D01*
X165749596Y-90548035D02*
X165581109Y-90380113D01*
X165917800Y-90632250D02*
X165749596Y-90548035D01*
X163728000Y-90632250D02*
X164401664Y-88866560D01*
X165075900Y-90632250D02*
X164401672Y-88866560D01*
X178673300Y-90380150D02*
X178673300Y-88866750D01*
X177915300Y-89623450D02*
X179431700Y-89623450D01*
X176483600Y-90632250D02*
X176483600Y-88866750D01*
X176483600Y-88866750D02*
X177494200Y-88866750D01*
X175388239Y-90632242D02*
X175051600Y-90632250D01*
X175556726Y-90548337D02*
X175388239Y-90632242D01*
X175725213Y-90380104D02*
X175556726Y-90548337D01*
X175809598Y-90211787D02*
X175725213Y-90380104D01*
X175893700Y-89959650D02*
X175809598Y-90211787D01*
X175893761Y-89539229D02*
X175893700Y-89959650D01*
X175809658Y-89286979D02*
X175893761Y-89539229D01*
X175725274Y-89118972D02*
X175809658Y-89286979D01*
X175556787Y-88950739D02*
X175725274Y-89118972D01*
X175388300Y-88866750D02*
X175556787Y-88950739D01*
X175051561Y-88866771D02*
X175388300Y-88866750D01*
X174883074Y-88950760D02*
X175051561Y-88866771D01*
X174714587Y-89118993D02*
X174883074Y-88950760D01*
X174630202Y-89287000D02*
X174714587Y-89118993D01*
X174546100Y-89539250D02*
X174630202Y-89287000D01*
X174546139Y-89959658D02*
X174546100Y-89539250D01*
X174630242Y-90211795D02*
X174546139Y-89959658D01*
X174714626Y-90380112D02*
X174630242Y-90211795D01*
X174883113Y-90548345D02*
X174714626Y-90380112D01*
X175051600Y-90632250D02*
X174883113Y-90548345D01*
X172861500Y-90632250D02*
X173535728Y-88866750D01*
X174209400Y-90632250D02*
X173535736Y-88866750D01*
X136686200Y-100920000D02*
X136686200Y-99154310D01*
X134664500Y-100920000D02*
X134664500Y-99154310D01*
X134664500Y-100920000D02*
X135338474Y-99154310D01*
X136012300Y-100920000D02*
X135338500Y-99154310D01*
X136012300Y-100920000D02*
X136012300Y-99154310D01*
X132895800Y-100920000D02*
X132895800Y-99154310D01*
X133485200Y-99154310D02*
X132895800Y-99154310D01*
X133738000Y-99238490D02*
X133485200Y-99154310D01*
X133906500Y-99406410D02*
X133738000Y-99238490D01*
X133990800Y-99574730D02*
X133906500Y-99406410D01*
X134075000Y-99826870D02*
X133990800Y-99574730D01*
X134074988Y-100247323D02*
X134075000Y-99826870D01*
X133990773Y-100499545D02*
X134074988Y-100247323D01*
X133906445Y-100667779D02*
X133990773Y-100499545D01*
X133737930Y-100835785D02*
X133906445Y-100667779D01*
X133485200Y-100920000D02*
X133737930Y-100835785D01*
X132895800Y-100920000D02*
X133485200Y-100920000D01*
X132221700Y-100920000D02*
X132221700Y-99154310D01*
X131042800Y-100079090D02*
X132221700Y-100079090D01*
X138751486Y-91062850D02*
X138583056Y-91230772D01*
X139004300Y-90978550D02*
X138751486Y-91062850D01*
X139340955Y-90978528D02*
X139004300Y-90978550D01*
X139593798Y-91062828D02*
X139340955Y-90978528D01*
X139762200Y-91230750D02*
X139593798Y-91062828D01*
X139762252Y-91482941D02*
X139762200Y-91230750D01*
X139678037Y-91651174D02*
X139762252Y-91482941D01*
X139593850Y-91735191D02*
X139678037Y-91651174D01*
X139425307Y-91819406D02*
X139593850Y-91735191D01*
X138920045Y-91987413D02*
X139425307Y-91819406D01*
X138751530Y-92071628D02*
X138920045Y-91987413D01*
X138667315Y-92155646D02*
X138751530Y-92071628D01*
X138583100Y-92323850D02*
X138667315Y-92155646D01*
X138583100Y-92492051D02*
X138583100Y-92323850D01*
X138751500Y-92660050D02*
X138583100Y-92492051D01*
X139004300Y-92744350D02*
X138751500Y-92660050D01*
X139340955Y-92744273D02*
X139004300Y-92744350D01*
X139593798Y-92659972D02*
X139340955Y-92744273D01*
X139762200Y-92492051D02*
X139593798Y-92659972D01*
X136898500Y-92744350D02*
X136898500Y-90978550D01*
X137909285Y-91987431D02*
X137656527Y-91903413D01*
X137993584Y-92071646D02*
X137909285Y-91987431D01*
X138077799Y-92239850D02*
X137993584Y-92071646D01*
X138077773Y-92407914D02*
X138077799Y-92239850D01*
X137993558Y-92576118D02*
X138077773Y-92407914D01*
X137909258Y-92660050D02*
X137993558Y-92576118D01*
X137656500Y-92744350D02*
X137909258Y-92660050D01*
X136898500Y-92744350D02*
X137656500Y-92744350D01*
X137656500Y-90978550D02*
X136898500Y-90978550D01*
X137909300Y-91062850D02*
X137656500Y-90978550D01*
X137993600Y-91146750D02*
X137909300Y-91062850D01*
X138077799Y-91314950D02*
X137993600Y-91146750D01*
X138077773Y-91567211D02*
X138077799Y-91314950D01*
X137993558Y-91735246D02*
X138077773Y-91567211D01*
X137909258Y-91819461D02*
X137993558Y-91735246D01*
X137656500Y-91903450D02*
X137909258Y-91819461D01*
X136898500Y-91903450D02*
X137656500Y-91903450D01*
X135129800Y-92744350D02*
X135803605Y-90978540D01*
X136477300Y-92744350D02*
X135803600Y-90978550D01*
X134708630Y-91230772D02*
X134792845Y-91399005D01*
X134540115Y-91062850D02*
X134708630Y-91230772D01*
X134371600Y-90978550D02*
X134540115Y-91062850D01*
X134034888Y-90978473D02*
X134371600Y-90978550D01*
X133866373Y-91062773D02*
X134034888Y-90978473D01*
X133697943Y-91230695D02*
X133866373Y-91062773D01*
X133613615Y-91398928D02*
X133697943Y-91230695D01*
X133529400Y-91651150D02*
X133613615Y-91398928D01*
X133529400Y-92071650D02*
X133529400Y-91651150D01*
X133613600Y-92323850D02*
X133529400Y-92071650D01*
X133697900Y-92492051D02*
X133613600Y-92323850D01*
X133866300Y-92660050D02*
X133697900Y-92492051D01*
X134034900Y-92744350D02*
X133866300Y-92660050D01*
X134371555Y-92744305D02*
X134034900Y-92744350D01*
X134540070Y-92660005D02*
X134371555Y-92744305D01*
X134708585Y-92492083D02*
X134540070Y-92660005D01*
X134792800Y-92323850D02*
X134708585Y-92492083D01*
X164511200Y-100919800D02*
X164511200Y-99154310D01*
X165521813Y-100163108D02*
X165269224Y-100079091D01*
X165606198Y-100247323D02*
X165521813Y-100163108D01*
X165690300Y-100415330D02*
X165606198Y-100247323D01*
X165690276Y-100583560D02*
X165690300Y-100415330D01*
X165606173Y-100751793D02*
X165690276Y-100583560D01*
X165521789Y-100835783D02*
X165606173Y-100751793D01*
X165269200Y-100919800D02*
X165521789Y-100835783D01*
X164511200Y-100919800D02*
X165269200Y-100919800D01*
X165269224Y-99154303D02*
X164511200Y-99154310D01*
X165521813Y-99238489D02*
X165269224Y-99154303D01*
X165606198Y-99322507D02*
X165521813Y-99238489D01*
X165690300Y-99490740D02*
X165606198Y-99322507D01*
X165690276Y-99742964D02*
X165690300Y-99490740D01*
X165606173Y-99910886D02*
X165690276Y-99742964D01*
X165521789Y-99995101D02*
X165606173Y-99910886D01*
X165269200Y-100079090D02*
X165521789Y-99995101D01*
X164511200Y-100079090D02*
X165269200Y-100079090D01*
X162911011Y-99238497D02*
X162742524Y-99406419D01*
X163163600Y-99154310D02*
X162911011Y-99238497D01*
X163500524Y-99154301D02*
X163163600Y-99154310D01*
X163753113Y-99238488D02*
X163500524Y-99154301D01*
X163921600Y-99406410D02*
X163753113Y-99238488D01*
X163921624Y-99658670D02*
X163921600Y-99406410D01*
X163837240Y-99826874D02*
X163921624Y-99658670D01*
X163753138Y-99910892D02*
X163837240Y-99826874D01*
X163584651Y-99995107D02*
X163753138Y-99910892D01*
X163079474Y-100163114D02*
X163584651Y-99995107D01*
X162910987Y-100247329D02*
X163079474Y-100163114D01*
X162826602Y-100331346D02*
X162910987Y-100247329D01*
X162742500Y-100499550D02*
X162826602Y-100331346D01*
X162742524Y-100667580D02*
X162742500Y-100499550D01*
X162911011Y-100835783D02*
X162742524Y-100667580D01*
X163163600Y-100919800D02*
X162911011Y-100835783D01*
X163500524Y-100919801D02*
X163163600Y-100919800D01*
X163753113Y-100835784D02*
X163500524Y-100919801D01*
X163921600Y-100667580D02*
X163753113Y-100835784D01*
X162152677Y-99658669D02*
X162152600Y-100919800D01*
X162068575Y-99406419D02*
X162152677Y-99658669D01*
X161899806Y-99238497D02*
X162068575Y-99406419D01*
X161647500Y-99154310D02*
X161899806Y-99238497D01*
X161478960Y-99154301D02*
X161647500Y-99154310D01*
X161226089Y-99238488D02*
X161478960Y-99154301D01*
X161057602Y-99406410D02*
X161226089Y-99238488D01*
X160973500Y-99658660D02*
X161057602Y-99406410D01*
X160973500Y-100919800D02*
X160973500Y-99658660D01*
X176960300Y-100920000D02*
X176960300Y-99154310D01*
X177718342Y-100079091D02*
X176960300Y-100079090D01*
X177970931Y-100163108D02*
X177718342Y-100079091D01*
X178055316Y-100247323D02*
X177970931Y-100163108D01*
X178139700Y-100415330D02*
X178055316Y-100247323D01*
X178139658Y-100583564D02*
X178139700Y-100415330D01*
X178055273Y-100751796D02*
X178139658Y-100583564D01*
X177970889Y-100835785D02*
X178055273Y-100751796D01*
X177718300Y-100920000D02*
X177970889Y-100835785D01*
X176960300Y-100920000D02*
X177718300Y-100920000D01*
X177549800Y-100079090D02*
X178139644Y-99154305D01*
X174770200Y-100920000D02*
X175191557Y-99154310D01*
X174265016Y-100163107D02*
X174180913Y-100079089D01*
X174349400Y-100331340D02*
X174265016Y-100163107D01*
X174349458Y-100583564D02*
X174349400Y-100331340D01*
X174265073Y-100751796D02*
X174349458Y-100583564D01*
X175612900Y-100920000D02*
X175191543Y-99154310D01*
X175612900Y-100920000D02*
X176033693Y-99154310D01*
X176455100Y-100920000D02*
X176033700Y-99154310D01*
X173170000Y-100920000D02*
X173170000Y-99154310D01*
X173928042Y-99995100D02*
X173170000Y-99995100D01*
X174180913Y-100079089D02*
X173928042Y-99995100D01*
X173170000Y-100920000D02*
X173928100Y-100920000D01*
D11*
%TO.C,REF\u002A\u002A*%
X125130000Y-80210000D03*
X183130000Y-103210000D03*
X125130000Y-103210000D03*
X183130000Y-80210000D03*
%TD*%
M02*
