<?xml version="1.0" encoding="UTF-8" standalone="no"?>
<svg
   xmlns:dc="http://purl.org/dc/elements/1.1/"
   xmlns:cc="http://creativecommons.org/ns#"
   xmlns:rdf="http://www.w3.org/1999/02/22-rdf-syntax-ns#"
   xmlns:svg="http://www.w3.org/2000/svg"
   xmlns="http://www.w3.org/2000/svg"
   xmlns:sodipodi="http://sodipodi.sourceforge.net/DTD/sodipodi-0.dtd"
   xmlns:inkscape="http://www.inkscape.org/namespaces/inkscape"
   width="65mm"
   height="30mm"
   viewBox="0 0 230.61871 106.4394"
   version="1.1"
   xml:space="preserve"
   style="clip-rule:evenodd;fill-rule:evenodd"
   id="svg462"
   sodipodi:docname="back.svg"
   inkscape:version="1.0.2 (e86c8708, 2021-01-15)"><metadata
   id="metadata468"><rdf:RDF><cc:Work
       rdf:about=""><dc:format>image/svg+xml</dc:format><dc:type
         rdf:resource="http://purl.org/dc/dcmitype/StillImage" /><dc:title></dc:title></cc:Work></rdf:RDF></metadata><defs
   id="defs466">
        
        
        
        
        
        
        
        
        
        
        
    
            
            
        
        
    
            
            
            
        
            
            
            
            
        
            
            
            
            
        
            
            
        
            
        
            
            
        
            
            
            
            
        
                
                
                
                
            
                
                
                
                
            
            
            
            
            
        
            
            
            
            
        
            
            
        
            
        
                
            
                
            
                
            
                
            
                
            
                
                
                
            
                
                
                
            
                
                
                
            
                
                
            
                    
                
                    
                
                    
                
                    
                
                    
                
                    
                
                    
                
                    
                
                
            
                
            
                
            
                
            
                
            
                
            
                
            
                
            
                
                
                
            
                
                
                
            
                
                
                
                
                
                
                
                
            
                    
                
                    
                
                    
                
                    
                
                    
                
                    
                
                    
                
                    
                
                    
                
                    
                
                    
                
                    
                
                    
                
                    
                
                    
                
                    
                
                    
                
                    
                
                    
                
                    
                
                    
                
                    
                
                    
                
                    
                
                    
                </defs><sodipodi:namedview
   pagecolor="#ffffff"
   bordercolor="#666666"
   borderopacity="1"
   objecttolerance="10"
   gridtolerance="10"
   guidetolerance="10"
   inkscape:pageopacity="0"
   inkscape:pageshadow="2"
   inkscape:window-width="1680"
   inkscape:window-height="997"
   id="namedview464"
   showgrid="false"
   inkscape:zoom="3.4233672"
   inkscape:cx="142.19814"
   inkscape:cy="104.55926"
   inkscape:window-x="0"
   inkscape:window-y="25"
   inkscape:window-maximized="0"
   inkscape:current-layer="svg462"
   inkscape:document-rotation="0"
   units="mm"
   inkscape:document-units="mm"
   scale-x="3.54798" />
    
    <path
   style="fill:none;fill-rule:nonzero;stroke:#000000;stroke-width:0.374319;stroke-linecap:round;stroke-linejoin:round;stroke-miterlimit:10"
   d="m 182.663,85.3167 h 2.686 l 0.896,-0.2984 0.298,-0.2976 0.299,-0.5961 v -0.8937 l -0.299,-0.5961 -0.298,-0.2977 -0.896,-0.2976 h -2.686"
   id="path1711" /><path
   style="fill:none;fill-rule:nonzero;stroke:#000000;stroke-width:0.374319;stroke-linecap:round;stroke-linejoin:round;stroke-miterlimit:10"
   d="M 182.663,85.3167 V 79.0603"
   id="path1709" /><path
   style="fill:none;fill-rule:nonzero;stroke:#000000;stroke-width:0.374319;stroke-linecap:round;stroke-linejoin:round;stroke-miterlimit:10"
   d="M 194.303,85.3167 192.81,79.0603"
   id="path1707" /><path
   style="fill:none;fill-rule:nonzero;stroke:#000000;stroke-width:0.374319;stroke-linecap:round;stroke-linejoin:round;stroke-miterlimit:10"
   d="m 191.319,85.3167 1.491,-6.2564"
   id="path1705" /><path
   style="fill:none;fill-rule:nonzero;stroke:#000000;stroke-width:0.374319;stroke-linecap:round;stroke-linejoin:round;stroke-miterlimit:10"
   d="m 191.319,85.3167 -1.493,-6.2564"
   id="path1703" /><path
   style="fill:none;fill-rule:nonzero;stroke:#000000;stroke-width:0.374319;stroke-linecap:round;stroke-linejoin:round;stroke-miterlimit:10"
   d="m 188.333,85.3167 1.493,-6.2564"
   id="path1701" /><path
   style="fill:none;fill-rule:nonzero;stroke:#000000;stroke-width:0.374319;stroke-linecap:round;stroke-linejoin:round;stroke-miterlimit:10"
   d="m 198.182,82.3371 2.09,-3.2768"
   id="path1699" /><path
   style="fill:none;fill-rule:nonzero;stroke:#000000;stroke-width:0.374319;stroke-linecap:round;stroke-linejoin:round;stroke-miterlimit:10"
   d="m 196.093,85.3167 h 2.686 l 0.895,-0.2984 0.299,-0.2976 0.299,-0.5961 v -0.5961 l -0.299,-0.5953 -0.299,-0.2984 -0.895,-0.2977 h -2.686"
   id="path1697" /><path
   style="fill:none;fill-rule:nonzero;stroke:#000000;stroke-width:0.374319;stroke-linecap:round;stroke-linejoin:round;stroke-miterlimit:10"
   d="M 196.093,85.3167 V 79.0603"
   id="path1695" /><path
   style="fill:none;fill-rule:nonzero;stroke:#000000;stroke-width:0.374319;stroke-linecap:round;stroke-linejoin:round;stroke-miterlimit:10"
   d="m 139.447,85.316 v -4.4686 l 0.298,-0.8938 0.597,-0.595 0.896,-0.2983 h 0.597 l 0.894,0.2983 0.598,0.595 0.298,0.8938 v 4.4686"
   id="path1693" /><path
   style="fill:none;fill-rule:nonzero;stroke:#000000;stroke-width:0.374319;stroke-linecap:round;stroke-linejoin:round;stroke-miterlimit:10"
   d="m 149.893,84.4223 -0.597,0.596 -0.895,0.2977 h -1.194 l -0.895,-0.2977 -0.597,-0.596 v -0.5954 l 0.298,-0.596 0.299,-0.2977 0.597,-0.2984 1.79,-0.5953 0.597,-0.2984 0.298,-0.2977 0.299,-0.596 v -0.8938 l -0.597,-0.595 -0.895,-0.2983 h -1.194 l -0.895,0.2983 -0.597,0.595"
   id="path1691" /><path
   style="fill:none;fill-rule:nonzero;stroke:#000000;stroke-width:0.374319;stroke-linecap:round;stroke-linejoin:round;stroke-miterlimit:10"
   d="m 151.982,82.3371 h 2.686 l 0.895,-0.2976 0.299,-0.2984 0.298,-0.595 v -0.8937 l -0.298,-0.5961 -0.299,-0.2977 -0.895,-0.2983 h -2.686"
   id="path1689" /><path
   style="fill:none;fill-rule:nonzero;stroke:#000000;stroke-width:0.374319;stroke-linecap:round;stroke-linejoin:round;stroke-miterlimit:10"
   d="m 151.982,85.316 h 2.686 l 0.895,-0.2977 0.299,-0.2976 0.298,-0.5961 v -0.5961 l -0.298,-0.5953 -0.299,-0.2984 -0.895,-0.2977"
   id="path1687" /><path
   style="fill:none;fill-rule:nonzero;stroke:#000000;stroke-width:0.374319;stroke-linecap:round;stroke-linejoin:round;stroke-miterlimit:10"
   d="M 151.982,85.316 V 79.0603"
   id="path1685" /><path
   style="fill:none;fill-rule:nonzero;stroke:#000000;stroke-width:0.374319;stroke-linecap:round;stroke-linejoin:round;stroke-miterlimit:10"
   d="m 46.6808,54.8579 -0.2984,0.5961 -0.5971,0.595 -0.5971,0.2987 H 43.995 L 43.3979,56.049 42.8011,55.454 42.5023,54.8579 42.2039,53.9642 v -1.4898 l 0.2984,-0.8937 0.2988,-0.5961 0.5968,-0.595 0.5971,-0.2987 h 1.1932 l 0.5971,0.2987 0.5971,0.595 0.2984,0.5961"
   id="path1683" /><path
   style="fill:none;fill-rule:nonzero;stroke:#000000;stroke-width:0.374319;stroke-linecap:round;stroke-linejoin:round;stroke-miterlimit:10"
   d="M 52.6493,56.3477 50.2622,50.0909"
   id="path1681" /><path
   style="fill:none;fill-rule:nonzero;stroke:#000000;stroke-width:0.374319;stroke-linecap:round;stroke-linejoin:round;stroke-miterlimit:10"
   d="m 47.8747,56.3477 2.3875,-6.2568"
   id="path1679" /><path
   style="fill:none;fill-rule:nonzero;stroke:#000000;stroke-width:0.374319;stroke-linecap:round;stroke-linejoin:round;stroke-miterlimit:10"
   d="m 54.1419,53.3681 h 2.6858 l 0.8956,-0.2976 0.2987,-0.2984 0.2984,-0.5954 V 51.283 L 58.022,50.6869 57.7233,50.3896 56.8277,50.0909 h -2.6858"
   id="path1677" /><path
   style="fill:none;fill-rule:nonzero;stroke:#000000;stroke-width:0.374319;stroke-linecap:round;stroke-linejoin:round;stroke-miterlimit:10"
   d="m 54.1419,56.3477 h 2.6858 l 0.8956,-0.2987 0.2987,-0.2974 0.2984,-0.596 v -0.5954 l -0.2984,-0.596 -0.2987,-0.2984 -0.8956,-0.2977"
   id="path1675" /><path
   style="fill:none;fill-rule:nonzero;stroke:#000000;stroke-width:0.374319;stroke-linecap:round;stroke-linejoin:round;stroke-miterlimit:10"
   d="M 54.1419,56.3477 V 50.0909"
   id="path1673" /><path
   style="fill:none;fill-rule:nonzero;stroke:#000000;stroke-width:0.374319;stroke-linecap:round;stroke-linejoin:round;stroke-miterlimit:10"
   d="m 64.2888,55.454 -0.5967,0.595 -0.8959,0.2987 H 61.6033 L 60.7075,56.049 60.1107,55.454 v -0.5961 l 0.2984,-0.596 0.2984,-0.2977 0.5971,-0.2984 1.7903,-0.5953 0.5972,-0.2984 0.2983,-0.2977 0.2984,-0.5961 v -0.8937 l -0.5967,-0.595 -0.8959,-0.2987 h -1.1929 l -0.8958,0.2987 -0.5968,0.595"
   id="path1671" /><path
   style="fill:none;fill-rule:nonzero;stroke:#000000;stroke-width:0.374319;stroke-linecap:round;stroke-linejoin:round;stroke-miterlimit:10"
   d="m 33.3932,82.3371 h 4.1774"
   id="path1669" /><path
   style="fill:none;fill-rule:nonzero;stroke:#000000;stroke-width:0.374319;stroke-linecap:round;stroke-linejoin:round;stroke-miterlimit:10"
   d="M 37.5706,85.3167 V 79.0603"
   id="path1667" /><path
   style="fill:none;fill-rule:nonzero;stroke:#000000;stroke-width:0.374319;stroke-linecap:round;stroke-linejoin:round;stroke-miterlimit:10"
   d="M 33.3932,85.3167 V 79.0603"
   id="path1665" /><path
   style="fill:none;fill-rule:nonzero;stroke:#000000;stroke-width:0.374319;stroke-linecap:round;stroke-linejoin:round;stroke-miterlimit:10"
   d="m 39.9588,85.3167 h 2.0887 l 0.8955,-0.2984 0.5971,-0.5953 0.2988,-0.5961 0.2984,-0.8937 V 81.4434 L 43.8389,80.55 43.5401,79.9536 42.943,79.3586 42.0475,79.0603 h -2.0887"
   id="path1663" /><path
   style="fill:none;fill-rule:nonzero;stroke:#000000;stroke-width:0.374319;stroke-linecap:round;stroke-linejoin:round;stroke-miterlimit:10"
   d="M 39.9588,85.3167 V 79.0603"
   id="path1661" /><path
   style="fill:none;fill-rule:nonzero;stroke:#000000;stroke-width:0.374319;stroke-linecap:round;stroke-linejoin:round;stroke-miterlimit:10"
   d="M 51.0016,85.3167 V 79.0603"
   id="path1659" /><path
   style="fill:none;fill-rule:nonzero;stroke:#000000;stroke-width:0.374319;stroke-linecap:round;stroke-linejoin:round;stroke-miterlimit:10"
   d="M 51.0016,85.3167 48.6141,79.0603"
   id="path1657" /><path
   style="fill:none;fill-rule:nonzero;stroke:#000000;stroke-width:0.374319;stroke-linecap:round;stroke-linejoin:round;stroke-miterlimit:10"
   d="m 46.226,85.3167 2.3881,-6.2564"
   id="path1655" /><path
   style="fill:none;fill-rule:nonzero;stroke:#000000;stroke-width:0.374319;stroke-linecap:round;stroke-linejoin:round;stroke-miterlimit:10"
   d="M 46.226,85.3167 V 79.0603"
   id="path1653" /><path
   style="fill:none;fill-rule:nonzero;stroke:#000000;stroke-width:0.374319;stroke-linecap:round;stroke-linejoin:round;stroke-miterlimit:10"
   d="M 53.3897,85.3167 V 79.0603"
   id="path1651" /><path
   style="fill:none;fill-rule:nonzero;stroke:#000000;stroke-width:0.374319;stroke-linecap:round;stroke-linejoin:round;stroke-miterlimit:10"
   d="m 186.346,48.864 -2.387,-6.2557"
   id="path1649" /><path
   style="fill:none;fill-rule:nonzero;stroke:#000000;stroke-width:0.374319;stroke-linecap:round;stroke-linejoin:round;stroke-miterlimit:10"
   d="m 181.57,48.864 2.389,-6.2557"
   id="path1647" /><path
   style="fill:none;fill-rule:nonzero;stroke:#000000;stroke-width:0.374319;stroke-linecap:round;stroke-linejoin:round;stroke-miterlimit:10"
   d="m 189.33,48.864 -0.597,-0.2973 -0.597,-0.5961 -0.299,-0.5964 -0.298,-0.8934 v -1.4897 l 0.298,-0.8938 0.299,-0.5953 0.597,-0.5961 0.597,-0.2976 h 1.193 l 0.597,0.2976 0.597,0.5961 0.299,0.5953 0.298,0.8938 v 1.4897 l -0.298,0.8934 -0.299,0.5964 -0.597,0.5961 -0.597,0.2973 z"
   id="path1645" /><path
   style="fill:none;fill-rule:nonzero;stroke:#000000;stroke-width:0.374319;stroke-linecap:round;stroke-linejoin:round;stroke-miterlimit:10"
   d="m 194.404,42.6083 h 3.581"
   id="path1643" /><path
   style="fill:none;fill-rule:nonzero;stroke:#000000;stroke-width:0.374319;stroke-linecap:round;stroke-linejoin:round;stroke-miterlimit:10"
   d="M 194.404,48.864 V 42.6083"
   id="path1641" /><path
   style="fill:none;fill-rule:nonzero;stroke:#000000;stroke-width:0.374319;stroke-linecap:round;stroke-linejoin:round;stroke-miterlimit:10"
   d="m 199.477,45.2894 h 5.373"
   id="path1639" /><path
   style="fill:none;fill-rule:nonzero;stroke:#000000;stroke-width:0.374319;stroke-linecap:round;stroke-linejoin:round;stroke-miterlimit:10"
   d="M 202.163,47.9706 V 42.6083"
   id="path1637" /><path
   style="fill:none;fill-rule:nonzero;stroke:#000000;stroke-width:0.374319;stroke-linecap:round;stroke-linejoin:round;stroke-miterlimit:10"
   d="m 153.983,48.864 -2.389,-6.2564"
   id="path1635" /><path
   style="fill:none;fill-rule:nonzero;stroke:#000000;stroke-width:0.374319;stroke-linecap:round;stroke-linejoin:round;stroke-miterlimit:10"
   d="m 149.207,48.864 2.387,-6.2564"
   id="path1633" /><path
   style="fill:none;fill-rule:nonzero;stroke:#000000;stroke-width:0.374319;stroke-linecap:round;stroke-linejoin:round;stroke-miterlimit:10"
   d="m 156.966,48.864 -0.596,-0.2984 -0.597,-0.595 -0.299,-0.5964 -0.298,-0.8934 v -1.4897 l 0.298,-0.8938 0.299,-0.5953 0.597,-0.5961 0.596,-0.2983 h 1.194 l 0.597,0.2983 0.597,0.5961 0.299,0.5953 0.298,0.8938 v 1.4897 l -0.298,0.8934 -0.299,0.5964 -0.597,0.595 -0.597,0.2984 z"
   id="path1631" /><path
   style="fill:none;fill-rule:nonzero;stroke:#000000;stroke-width:0.374319;stroke-linecap:round;stroke-linejoin:round;stroke-miterlimit:10"
   d="m 162.04,42.6076 h 3.582"
   id="path1629" /><path
   style="fill:none;fill-rule:nonzero;stroke:#000000;stroke-width:0.374319;stroke-linecap:round;stroke-linejoin:round;stroke-miterlimit:10"
   d="M 162.04,48.864 V 42.6076"
   id="path1627" /><path
   style="fill:none;fill-rule:nonzero;stroke:#000000;stroke-width:0.374319;stroke-linecap:round;stroke-linejoin:round;stroke-miterlimit:10"
   d="m 167.114,45.2894 h 5.371"
   id="path1625" /><path
   style="fill:none;fill-rule:nonzero;stroke:#000000;stroke-width:0.374319;stroke-linecap:round;stroke-linejoin:round;stroke-miterlimit:10"
   d="m 125.275,29.1818 4.774,3.0338 -4.774,3.0338"
   id="path1623" /><path
   style="fill:none;fill-rule:nonzero;stroke:#000000;stroke-width:0.374319;stroke-linecap:round;stroke-linejoin:round;stroke-miterlimit:10"
   d="m 129.873,29.1818 4.775,3.0338 -4.775,3.0338"
   id="path1621" /><path
   style="fill:none;fill-rule:nonzero;stroke:#000000;stroke-width:0.374319;stroke-linecap:round;stroke-linejoin:round;stroke-miterlimit:10"
   d="m 137.035,28.9609 v 6.5103"
   id="path1619" /><path
   style="fill:none;fill-rule:nonzero;stroke:#000000;stroke-width:0.374319;stroke-linecap:round;stroke-linejoin:round;stroke-miterlimit:10"
   d="m 53.3887,28.9609 v 6.5103"
   id="path1617" /><path
   style="fill:none;fill-rule:nonzero;stroke:#000000;stroke-width:0.374319;stroke-linecap:round;stroke-linejoin:round;stroke-miterlimit:10"
   d="m 60.5514,29.1818 -4.7746,3.0338 4.7746,3.0338"
   id="path1615" /><path
   style="fill:none;fill-rule:nonzero;stroke:#000000;stroke-width:0.374319;stroke-linecap:round;stroke-linejoin:round;stroke-miterlimit:10"
   d="m 65.1499,29.1818 -4.7756,3.0338 4.7756,3.0338"
   id="path1613" /><path
   style="fill:none;fill-rule:nonzero;stroke:#000000;stroke-width:0.374319;stroke-linecap:round;stroke-linejoin:round;stroke-miterlimit:10"
   d="m 90.4365,35.2494 v -6.0676 l 4.7753,3.0338 z"
   id="path1611" /><path
   style="fill:none;fill-rule:nonzero;stroke:#000000;stroke-width:0.374319;stroke-linecap:round;stroke-linejoin:round;stroke-miterlimit:10"
   d="m 97.5992,28.9609 v 6.5103"
   id="path1609" /><path
   style="fill:none;fill-rule:nonzero;stroke:#000000;stroke-width:0.374319;stroke-linecap:round;stroke-linejoin:round;stroke-miterlimit:10"
   d="m 99.9863,28.9609 v 6.5103"
   id="path1607" /><path
   style="fill:none;fill-rule:nonzero;stroke:#000000;stroke-width:0.374319;stroke-linecap:round;stroke-linejoin:round;stroke-miterlimit:10"
   d="m 164.226,35.4712 h -2.232 v -6.5103 h 2.225"
   id="path1605" /><path
   style="fill:none;fill-rule:nonzero;stroke:#000000;stroke-width:0.374319;stroke-linecap:round;stroke-linejoin:round;stroke-miterlimit:10"
   d="m 168.267,28.9609 h 2.233 v 6.5103 h -2.227"
   id="path1603" /><path
   style="fill:none;fill-rule:nonzero;stroke:#000000;stroke-width:0.374319;stroke-linecap:round;stroke-linejoin:round;stroke-miterlimit:10"
   d="m 182.146,92.452 -2.749,2.8235 v 3.4819 h 24.115 v -3.4819 l -2.749,-2.8235 z"
   id="path1601" /><path
   style="fill:none;fill-rule:nonzero;stroke:#000000;stroke-width:0.374319;stroke-linecap:round;stroke-linejoin:round;stroke-miterlimit:10"
   d="m 137.774,92.452 -2.75,2.8235 v 3.4819 h 24.116 v -3.4819 l -2.75,-2.8235 z"
   id="path1599" /><path
   style="fill:none;fill-rule:nonzero;stroke:#000000;stroke-width:0.374319;stroke-linecap:round;stroke-linejoin:round;stroke-miterlimit:10"
   d="m 29.795,89.9741 -4.2467,3.9322 v 4.8522 h 37.2536 v -4.8522 l -4.2466,-3.9322 z"
   id="path1597" /><path
   style="fill:none;fill-rule:nonzero;stroke:#000000;stroke-width:0.374319;stroke-linecap:round;stroke-linejoin:round;stroke-miterlimit:10"
   d="M 37.316131,53.221207 A 14.676305,14.64973 0 0 1 22.639826,67.87091 14.676305,14.64973 0 0 1 7.963521,53.22118 14.676305,14.64973 0 0 1 22.639826,38.57145 14.676305,14.64973 0 0 1 37.316131,53.22118 Z"
   id="path1595" /><path
   style="fill:none;fill-rule:nonzero;stroke:#000000;stroke-width:0.374319;stroke-linecap:round;stroke-linejoin:round;stroke-miterlimit:10"
   d="m 27.956165,53.219307 a 5.3172717,5.3077784 0 0 1 -5.317272,5.307778 5.3172717,5.3077784 0 0 1 -5.317272,-5.307778 5.3172717,5.3077784 0 0 1 5.317272,-5.307778 5.3172717,5.3077784 0 0 1 5.317272,5.307778 z"
   id="path1593" /><path
   style="fill:none;fill-rule:nonzero;stroke:#000000;stroke-width:0.374319;stroke-linecap:round;stroke-linejoin:round;stroke-miterlimit:10"
   d="m 137.50768,63.961193 a 7.9759073,7.9616671 0 0 1 -7.97591,7.961667 7.9759073,7.9616671 0 0 1 -7.97591,-7.961667 7.9759073,7.9616671 0 0 1 7.97591,-7.961667 7.9759073,7.9616671 0 0 1 7.97591,7.961667 z"
   id="path1591" /><path
   style="fill:none;fill-rule:nonzero;stroke:#000000;stroke-width:0.374319;stroke-linecap:round;stroke-linejoin:round;stroke-miterlimit:10"
   d="m 135.73525,63.961193 a 6.2034836,6.1920958 0 0 1 -6.20348,6.192096 6.2034836,6.1920958 0 0 1 -6.20348,-6.192096 6.2034836,6.1920958 0 0 1 6.20348,-6.192096 6.2034836,6.1920958 0 0 1 6.20348,6.192096 z"
   id="path1589" /><path
   style="fill:none;fill-rule:nonzero;stroke:#000000;stroke-width:0.374319;stroke-linecap:round;stroke-linejoin:round;stroke-miterlimit:10"
   d="m 200.27058,63.961193 a 7.0625567,7.0492759 0 0 1 -7.06256,7.049276 7.0625567,7.0492759 0 0 1 -7.06255,-7.049276 7.0625567,7.0492759 0 0 1 7.06255,-7.049276 7.0625567,7.0492759 0 0 1 7.06256,7.049276 z"
   id="path1587" /><path
   style="fill:none;fill-rule:nonzero;stroke:#000000;stroke-width:0.374319;stroke-linecap:round;stroke-linejoin:round;stroke-miterlimit:10"
   d="m 167.19155,63.961193 a 7.0625567,7.0492759 0 0 1 -7.06255,7.049276 7.0625567,7.0492759 0 0 1 -7.06256,-7.049276 7.0625567,7.0492759 0 0 1 7.06256,-7.049276 7.0625567,7.0492759 0 0 1 7.06255,7.049276 z"
   id="path1585" /><path
   style="fill:none;fill-rule:nonzero;stroke:#000000;stroke-width:0.374319;stroke-linecap:round;stroke-linejoin:round;stroke-miterlimit:10"
   d="m 173.37539,14.77441 a 7.0625567,7.0492759 0 0 1 -7.06255,7.049276 7.0625567,7.0492759 0 0 1 -7.06256,-7.049276 7.0625567,7.0492759 0 0 1 7.06256,-7.0492756 7.0625567,7.0492759 0 0 1 7.06255,7.0492756 z"
   id="path1583" /><path
   style="fill:none;fill-rule:nonzero;stroke:#000000;stroke-width:0.374319;stroke-linecap:round;stroke-linejoin:round;stroke-miterlimit:10"
   d="M 66.036136,14.77441 A 7.0625567,7.0492759 0 0 1 58.973579,21.823686 7.0625567,7.0492759 0 0 1 51.911023,14.77441 7.0625567,7.0492759 0 0 1 58.973579,7.7251344 7.0625567,7.0492759 0 0 1 66.036136,14.77441 Z"
   id="path1581" /><path
   style="fill:none;fill-rule:nonzero;stroke:#000000;stroke-width:0.374319;stroke-linecap:round;stroke-linejoin:round;stroke-miterlimit:10"
   d="M 101.81589,14.77441 A 7.0625567,7.0492759 0 0 1 94.753334,21.823686 7.0625567,7.0492759 0 0 1 87.690777,14.77441 7.0625567,7.0492759 0 0 1 94.753334,7.7251344 7.0625567,7.0492759 0 0 1 101.81589,14.77441 Z"
   id="path1579" /><path
   style="fill:none;fill-rule:nonzero;stroke:#000000;stroke-width:0.374319;stroke-linecap:round;stroke-linejoin:round;stroke-miterlimit:10"
   d="m 137.59564,14.77441 a 7.0625567,7.0492759 0 0 1 -7.06256,7.049276 7.0625567,7.0492759 0 0 1 -7.06256,-7.049276 7.0625567,7.0492759 0 0 1 7.06256,-7.0492756 7.0625567,7.0492759 0 0 1 7.06256,7.0492756 z"
   id="path1577" /><path
   style="fill:none;fill-rule:nonzero;stroke:#000000;stroke-width:0.374319;stroke-linecap:round;stroke-linejoin:round;stroke-miterlimit:10"
   d="m 125.35,45.8678 c 0.321,2.2533 2.176,3.9762 4.41,3.9762 2.234,0 4.089,-1.7229 4.41,-3.9762"
   id="path1575" /><path
   style="fill:none;fill-rule:nonzero;stroke:#000000;stroke-width:0.374319;stroke-linecap:round;stroke-linejoin:round;stroke-miterlimit:10"
   d="m 125.35,45.8678 -0.071,-0.7338 c 0,-1.2549 0.468,-2.3945 1.237,-3.2321 -0.273,-0.1842 -0.598,-0.2743 -0.944,-0.2743 -1.125,0 -2.039,0.9601 -2.039,2.144 0,1.1024 0.794,2.0121 1.817,2.0962 z"
   id="path1573" /><path
   style="fill:none;fill-rule:nonzero;stroke:#000000;stroke-width:0.374319;stroke-linecap:round;stroke-linejoin:round;stroke-miterlimit:10"
   d="m 134.171,45.8678 c 1.022,-0.0841 1.816,-0.9938 1.816,-2.0962 0,-1.1839 -0.913,-2.144 -2.04,-2.144 -0.344,0 -0.67,0.0901 -0.942,0.2743 0.768,0.8376 1.235,1.9772 1.235,3.2321 z"
   id="path1571" /><path
   style="fill:none;fill-rule:nonzero;stroke:#000000;stroke-width:0.374319;stroke-linecap:round;stroke-linejoin:round;stroke-miterlimit:10"
   d="M 0.23934696,10.866566 C 0.23934696,5.0553415 4.9595645,0.29218516 10.78123,0.29124957"
   id="path1569" /><path
   style="fill:none;fill-rule:nonzero;stroke:#000000;stroke-width:0.374319;stroke-linecap:round;stroke-linejoin:round;stroke-miterlimit:10"
   d="M 0.18694156,95.676769 V 10.815086"
   id="path1567" /><path
   style="fill:none;fill-rule:nonzero;stroke:#000000;stroke-width:0.374319;stroke-linecap:round;stroke-linejoin:round;stroke-miterlimit:10"
   d="M 10.782188,106.25215 C 4.9595645,106.25144 0.24028257,101.54047 0.23934696,95.729279"
   id="path1565" /><path
   style="fill:none;fill-rule:nonzero;stroke:#000000;stroke-width:0.374319;stroke-linecap:round;stroke-linejoin:round;stroke-miterlimit:10"
   d="M 10.833634,0.18737725 H 219.78492"
   id="path1563" /><path
   style="fill:none;fill-rule:nonzero;stroke:#000000;stroke-width:0.374319;stroke-linecap:round;stroke-linejoin:round;stroke-miterlimit:10"
   d="M 219.78492,106.25144 H 10.833634"
   id="path1561" /><path
   style="fill:none;fill-rule:nonzero;stroke:#000000;stroke-width:0.374319;stroke-linecap:round;stroke-linejoin:round;stroke-miterlimit:10"
   d="m 219.73277,0.29218516 c 5.82049,0 10.59433,4.76407884 10.59433,10.57438184"
   id="path1559" /><path
   style="fill:none;fill-rule:nonzero;stroke:#000000;stroke-width:0.374319;stroke-linecap:round;stroke-linejoin:round;stroke-miterlimit:10"
   d="m 230.3271,95.729279 c 0,5.811191 -4.77277,10.522871 -10.59433,10.522871"
   id="path1557" /><path
   style="fill:none;fill-rule:nonzero;stroke:#000000;stroke-width:0.374319;stroke-linecap:round;stroke-linejoin:round;stroke-miterlimit:10"
   d="M 230.43176,10.815086 V 95.676769"
   id="path455" />
</svg>
