999
"DXF R12 Output" (www.mydxf.blogspot.com)
 0 
SECTION
 2 
HEADER
 9 
$ACADVER
 1 
AC1009
 9 
$EXTMIN
 10 
 0 
 20 
 0 
 9 
$EXTMAX
 10 
 8.5 
 20 
 11 
 0 
ENDSEC
 0 
SECTION
 2 
ENTITIES
0
LINE
8
Layer 1
10
51.551500
20
7.921750
11
52.309600
21
7.921750
0
LINE
8
Layer 1
10
52.309600
20
7.921750
11
52.562471
21
8.005965
0
LINE
8
Layer 1
10
52.562471
20
8.005965
11
52.646573
21
8.089954
0
LINE
8
Layer 1
10
52.646573
20
8.089954
11
52.730958
21
8.258187
0
LINE
8
Layer 1
10
52.730958
20
8.258187
11
52.730900
21
8.510410
0
LINE
8
Layer 1
10
52.730900
20
8.510410
11
52.646516
21
8.678643
0
LINE
8
Layer 1
10
52.646516
20
8.678643
11
52.562413
21
8.762661
0
LINE
8
Layer 1
10
52.562413
20
8.762661
11
52.309542
21
8.846650
0
LINE
8
Layer 1
10
52.309542
20
8.846650
11
51.551500
21
8.846650
0
LINE
8
Layer 1
10
51.551500
20
7.921750
11
51.551500
21
9.687440
0
LINE
8
Layer 1
10
54.836600
20
7.921750
11
54.415200
21
9.687440
0
LINE
8
Layer 1
10
53.994400
20
7.921750
11
54.415193
21
9.687440
0
LINE
8
Layer 1
10
53.994400
20
7.921750
11
53.573043
21
9.687440
0
LINE
8
Layer 1
10
53.151700
20
7.921750
11
53.573057
21
9.687440
0
LINE
8
Layer 1
10
55.931300
20
8.762660
11
56.521144
21
9.687445
0
LINE
8
Layer 1
10
55.341800
20
7.921750
11
56.099800
21
7.921750
0
LINE
8
Layer 1
10
56.099800
20
7.921750
11
56.352389
21
8.005965
0
LINE
8
Layer 1
10
56.352389
20
8.005965
11
56.436773
21
8.089954
0
LINE
8
Layer 1
10
56.436773
20
8.089954
11
56.521158
21
8.258187
0
LINE
8
Layer 1
10
56.521158
20
8.258187
11
56.521200
21
8.426420
0
LINE
8
Layer 1
10
56.521200
20
8.426420
11
56.436816
21
8.594427
0
LINE
8
Layer 1
10
56.436816
20
8.594427
11
56.352431
21
8.678642
0
LINE
8
Layer 1
10
56.352431
20
8.678642
11
56.099842
21
8.762659
0
LINE
8
Layer 1
10
56.099842
20
8.762659
11
55.341800
21
8.762660
0
LINE
8
Layer 1
10
55.341800
20
7.921750
11
55.341800
21
9.687440
0
LINE
8
Layer 1
10
39.355000
20
7.921950
11
39.355000
21
9.183090
0
LINE
8
Layer 1
10
39.355000
20
9.183090
11
39.439102
21
9.435340
0
LINE
8
Layer 1
10
39.439102
20
9.435340
11
39.607589
21
9.603262
0
LINE
8
Layer 1
10
39.607589
20
9.603262
11
39.860460
21
9.687449
0
LINE
8
Layer 1
10
39.860460
20
9.687449
11
40.029000
21
9.687440
0
LINE
8
Layer 1
10
40.029000
20
9.687440
11
40.281306
21
9.603253
0
LINE
8
Layer 1
10
40.281306
20
9.603253
11
40.450075
21
9.435331
0
LINE
8
Layer 1
10
40.450075
20
9.435331
11
40.534177
21
9.183081
0
LINE
8
Layer 1
10
40.534177
20
9.183081
11
40.534100
21
7.921950
0
LINE
8
Layer 1
10
42.303100
20
8.174170
11
42.134613
21
8.005966
0
LINE
8
Layer 1
10
42.134613
20
8.005966
11
41.882024
21
7.921949
0
LINE
8
Layer 1
10
41.882024
20
7.921949
11
41.545100
21
7.921950
0
LINE
8
Layer 1
10
41.545100
20
7.921950
11
41.292511
21
8.005968
0
LINE
8
Layer 1
10
41.292511
20
8.005968
11
41.124024
21
8.174171
0
LINE
8
Layer 1
10
41.124024
20
8.174171
11
41.124000
21
8.342200
0
LINE
8
Layer 1
10
41.124000
20
8.342200
11
41.208102
21
8.510404
0
LINE
8
Layer 1
10
41.208102
20
8.510404
11
41.292487
21
8.594421
0
LINE
8
Layer 1
10
41.292487
20
8.594421
11
41.460974
21
8.678636
0
LINE
8
Layer 1
10
41.460974
20
8.678636
11
41.966151
21
8.846643
0
LINE
8
Layer 1
10
41.966151
20
8.846643
11
42.134638
21
8.930858
0
LINE
8
Layer 1
10
42.134638
20
8.930858
11
42.218740
21
9.014876
0
LINE
8
Layer 1
10
42.218740
20
9.014876
11
42.303124
21
9.183080
0
LINE
8
Layer 1
10
42.303124
20
9.183080
11
42.303100
21
9.435340
0
LINE
8
Layer 1
10
42.303100
20
9.435340
11
42.134613
21
9.603262
0
LINE
8
Layer 1
10
42.134613
20
9.603262
11
41.882024
21
9.687449
0
LINE
8
Layer 1
10
41.882024
20
9.687449
11
41.545100
21
9.687440
0
LINE
8
Layer 1
10
41.545100
20
9.687440
11
41.292511
21
9.603253
0
LINE
8
Layer 1
10
41.292511
20
9.603253
11
41.124024
21
9.435331
0
LINE
8
Layer 1
10
42.892700
20
8.762660
11
43.650700
21
8.762660
0
LINE
8
Layer 1
10
43.650700
20
8.762660
11
43.903289
21
8.846649
0
LINE
8
Layer 1
10
43.903289
20
8.846649
11
43.987673
21
8.930864
0
LINE
8
Layer 1
10
43.987673
20
8.930864
11
44.071776
21
9.098786
0
LINE
8
Layer 1
10
44.071776
20
9.098786
11
44.071800
21
9.351010
0
LINE
8
Layer 1
10
44.071800
20
9.351010
11
43.987698
21
9.519243
0
LINE
8
Layer 1
10
43.987698
20
9.519243
11
43.903313
21
9.603261
0
LINE
8
Layer 1
10
43.903313
20
9.603261
11
43.650724
21
9.687447
0
LINE
8
Layer 1
10
43.650724
20
9.687447
11
42.892700
21
9.687440
0
LINE
8
Layer 1
10
42.892700
20
7.921950
11
43.650700
21
7.921950
0
LINE
8
Layer 1
10
43.650700
20
7.921950
11
43.903289
21
8.005968
0
LINE
8
Layer 1
10
43.903289
20
8.005968
11
43.987673
21
8.089957
0
LINE
8
Layer 1
10
43.987673
20
8.089957
11
44.071776
21
8.258190
0
LINE
8
Layer 1
10
44.071776
20
8.258190
11
44.071800
21
8.426420
0
LINE
8
Layer 1
10
44.071800
20
8.426420
11
43.987698
21
8.594427
0
LINE
8
Layer 1
10
43.987698
20
8.594427
11
43.903313
21
8.678642
0
LINE
8
Layer 1
10
43.903313
20
8.678642
11
43.650724
21
8.762659
0
LINE
8
Layer 1
10
42.892700
20
7.921950
11
42.892700
21
9.687440
0
LINE
8
Layer 1
10
13.174300
20
16.517900
11
13.090085
21
16.349667
0
LINE
8
Layer 1
10
13.090085
20
16.349667
11
12.921570
21
16.181745
0
LINE
8
Layer 1
10
12.921570
20
16.181745
11
12.753055
21
16.097445
0
LINE
8
Layer 1
10
12.753055
20
16.097445
11
12.416400
21
16.097400
0
LINE
8
Layer 1
10
12.416400
20
16.097400
11
12.247800
21
16.181700
0
LINE
8
Layer 1
10
12.247800
20
16.181700
11
12.079400
21
16.349700
0
LINE
8
Layer 1
10
12.079400
20
16.349700
11
11.995100
21
16.517900
0
LINE
8
Layer 1
10
11.995100
20
16.517900
11
11.910900
21
16.770100
0
LINE
8
Layer 1
10
11.910900
20
16.770100
11
11.910900
21
17.190600
0
LINE
8
Layer 1
10
11.910900
20
17.190600
11
11.995115
21
17.442822
0
LINE
8
Layer 1
10
11.995115
20
17.442822
11
12.079443
21
17.611055
0
LINE
8
Layer 1
10
12.079443
20
17.611055
11
12.247873
21
17.778977
0
LINE
8
Layer 1
10
12.247873
20
17.778977
11
12.416388
21
17.863277
0
LINE
8
Layer 1
10
12.416388
20
17.863277
11
12.753100
21
17.863200
0
LINE
8
Layer 1
10
12.753100
20
17.863200
11
12.921615
21
17.778900
0
LINE
8
Layer 1
10
12.921615
20
17.778900
11
13.090130
21
17.610978
0
LINE
8
Layer 1
10
13.090130
20
17.610978
11
13.174345
21
17.442745
0
LINE
8
Layer 1
10
14.858800
20
16.097400
11
14.185100
21
17.863200
0
LINE
8
Layer 1
10
13.511300
20
16.097400
11
14.185105
21
17.863210
0
LINE
8
Layer 1
10
15.280000
20
16.938300
11
16.038000
21
16.938300
0
LINE
8
Layer 1
10
16.038000
20
16.938300
11
16.290758
21
17.022289
0
LINE
8
Layer 1
10
16.290758
20
17.022289
11
16.375058
21
17.106504
0
LINE
8
Layer 1
10
16.375058
20
17.106504
11
16.459273
21
17.274539
0
LINE
8
Layer 1
10
16.459273
20
17.274539
11
16.459300
21
17.526800
0
LINE
8
Layer 1
10
16.459300
20
17.526800
11
16.375100
21
17.695000
0
LINE
8
Layer 1
10
16.375100
20
17.695000
11
16.290800
21
17.778900
0
LINE
8
Layer 1
10
16.290800
20
17.778900
11
16.038000
21
17.863200
0
LINE
8
Layer 1
10
16.038000
20
17.863200
11
15.280000
21
17.863200
0
LINE
8
Layer 1
10
15.280000
20
16.097400
11
16.038000
21
16.097400
0
LINE
8
Layer 1
10
16.038000
20
16.097400
11
16.290758
21
16.181700
0
LINE
8
Layer 1
10
16.290758
20
16.181700
11
16.375058
21
16.265632
0
LINE
8
Layer 1
10
16.375058
20
16.265632
11
16.459273
21
16.433836
0
LINE
8
Layer 1
10
16.459273
20
16.433836
11
16.459300
21
16.601900
0
LINE
8
Layer 1
10
16.459300
20
16.601900
11
16.375085
21
16.770104
0
LINE
8
Layer 1
10
16.375085
20
16.770104
11
16.290785
21
16.854319
0
LINE
8
Layer 1
10
16.290785
20
16.854319
11
16.038027
21
16.938337
0
LINE
8
Layer 1
10
15.280000
20
16.097400
11
15.280000
21
17.863200
0
LINE
8
Layer 1
10
18.143700
20
16.349700
11
17.975298
21
16.181778
0
LINE
8
Layer 1
10
17.975298
20
16.181778
11
17.722455
21
16.097478
0
LINE
8
Layer 1
10
17.722455
20
16.097478
11
17.385800
21
16.097400
0
LINE
8
Layer 1
10
17.385800
20
16.097400
11
17.133000
21
16.181700
0
LINE
8
Layer 1
10
17.133000
20
16.181700
11
16.964600
21
16.349700
0
LINE
8
Layer 1
10
16.964600
20
16.349700
11
16.964600
21
16.517900
0
LINE
8
Layer 1
10
16.964600
20
16.517900
11
17.048815
21
16.686104
0
LINE
8
Layer 1
10
17.048815
20
16.686104
11
17.133030
21
16.770122
0
LINE
8
Layer 1
10
17.133030
20
16.770122
11
17.301545
21
16.854337
0
LINE
8
Layer 1
10
17.301545
20
16.854337
11
17.806807
21
17.022344
0
LINE
8
Layer 1
10
17.806807
20
17.022344
11
17.975350
21
17.106559
0
LINE
8
Layer 1
10
17.975350
20
17.106559
11
18.059537
21
17.190576
0
LINE
8
Layer 1
10
18.059537
20
17.190576
11
18.143752
21
17.358809
0
LINE
8
Layer 1
10
18.143752
20
17.358809
11
18.143700
21
17.611000
0
LINE
8
Layer 1
10
18.143700
20
17.611000
11
17.975298
21
17.778922
0
LINE
8
Layer 1
10
17.975298
20
17.778922
11
17.722455
21
17.863222
0
LINE
8
Layer 1
10
17.722455
20
17.863222
11
17.385800
21
17.863200
0
LINE
8
Layer 1
10
17.385800
20
17.863200
11
17.132986
21
17.778900
0
LINE
8
Layer 1
10
17.132986
20
17.778900
11
16.964556
21
17.610978
0
LINE
8
Layer 1
10
9.424300
20
8.762660
11
10.603200
21
8.762660
0
LINE
8
Layer 1
10
10.603200
20
7.921750
11
10.603200
21
9.687440
0
LINE
8
Layer 1
10
9.424300
20
7.921750
11
9.424300
21
9.687440
0
LINE
8
Layer 1
10
11.277300
20
7.921750
11
11.866700
21
7.921750
0
LINE
8
Layer 1
10
11.866700
20
7.921750
11
12.119430
21
8.005965
0
LINE
8
Layer 1
10
12.119430
20
8.005965
11
12.287945
21
8.173972
0
LINE
8
Layer 1
10
12.287945
20
8.173972
11
12.372273
21
8.342205
0
LINE
8
Layer 1
10
12.372273
20
8.342205
11
12.456488
21
8.594427
0
LINE
8
Layer 1
10
12.456488
20
8.594427
11
12.456500
21
9.014880
0
LINE
8
Layer 1
10
12.456500
20
9.014880
11
12.372300
21
9.267020
0
LINE
8
Layer 1
10
12.372300
20
9.267020
11
12.288000
21
9.435340
0
LINE
8
Layer 1
10
12.288000
20
9.435340
11
12.119500
21
9.603260
0
LINE
8
Layer 1
10
12.119500
20
9.603260
11
11.866700
21
9.687440
0
LINE
8
Layer 1
10
11.866700
20
9.687440
11
11.277300
21
9.687440
0
LINE
8
Layer 1
10
11.277300
20
7.921750
11
11.277300
21
9.687440
0
LINE
8
Layer 1
10
14.393800
20
7.921750
11
14.393800
21
9.687440
0
LINE
8
Layer 1
10
14.393800
20
7.921750
11
13.720000
21
9.687440
0
LINE
8
Layer 1
10
13.046000
20
7.921750
11
13.719974
21
9.687440
0
LINE
8
Layer 1
10
13.046000
20
7.921750
11
13.046000
21
9.687440
0
LINE
8
Layer 1
10
15.067700
20
7.921750
11
15.067700
21
9.687440
0
LINE
8
Layer 1
10
52.590900
20
18.209500
11
51.917236
21
19.975000
0
LINE
8
Layer 1
10
51.243000
20
18.209500
11
51.917228
21
19.975000
0
LINE
8
Layer 1
10
53.433100
20
18.209500
11
53.264613
21
18.293405
0
LINE
8
Layer 1
10
53.264613
20
18.293405
11
53.096126
21
18.461638
0
LINE
8
Layer 1
10
53.096126
20
18.461638
11
53.011742
21
18.629955
0
LINE
8
Layer 1
10
53.011742
20
18.629955
11
52.927639
21
18.882092
0
LINE
8
Layer 1
10
52.927639
20
18.882092
11
52.927600
21
19.302500
0
LINE
8
Layer 1
10
52.927600
20
19.302500
11
53.011702
21
19.554750
0
LINE
8
Layer 1
10
53.011702
20
19.554750
11
53.096087
21
19.722757
0
LINE
8
Layer 1
10
53.096087
20
19.722757
11
53.264574
21
19.890990
0
LINE
8
Layer 1
10
53.264574
20
19.890990
11
53.433061
21
19.974979
0
LINE
8
Layer 1
10
53.433061
20
19.974979
11
53.769800
21
19.975000
0
LINE
8
Layer 1
10
53.769800
20
19.975000
11
53.938287
21
19.891011
0
LINE
8
Layer 1
10
53.938287
20
19.891011
11
54.106774
21
19.722778
0
LINE
8
Layer 1
10
54.106774
20
19.722778
11
54.191158
21
19.554771
0
LINE
8
Layer 1
10
54.191158
20
19.554771
11
54.275261
21
19.302521
0
LINE
8
Layer 1
10
54.275261
20
19.302521
11
54.275200
21
18.882100
0
LINE
8
Layer 1
10
54.275200
20
18.882100
11
54.191098
21
18.629963
0
LINE
8
Layer 1
10
54.191098
20
18.629963
11
54.106713
21
18.461646
0
LINE
8
Layer 1
10
54.106713
20
18.461646
11
53.938226
21
18.293413
0
LINE
8
Layer 1
10
53.938226
20
18.293413
11
53.769739
21
18.209508
0
LINE
8
Layer 1
10
53.769739
20
18.209508
11
53.433100
21
18.209500
0
LINE
8
Layer 1
10
54.865100
20
19.975000
11
55.875700
21
19.975000
0
LINE
8
Layer 1
10
54.865100
20
18.209500
11
54.865100
21
19.975000
0
LINE
8
Layer 1
10
56.296800
20
19.218300
11
57.813200
21
19.218300
0
LINE
8
Layer 1
10
57.054800
20
18.461600
11
57.054800
21
19.975000
0
LINE
8
Layer 1
10
43.457400
20
18.209500
11
42.783172
21
19.975190
0
LINE
8
Layer 1
10
42.109500
20
18.209500
11
42.783164
21
19.975190
0
LINE
8
Layer 1
10
44.299300
20
18.209500
11
44.131096
21
18.293715
0
LINE
8
Layer 1
10
44.131096
20
18.293715
11
43.962609
21
18.461637
0
LINE
8
Layer 1
10
43.962609
20
18.461637
11
43.878225
21
18.629954
0
LINE
8
Layer 1
10
43.878225
20
18.629954
11
43.794122
21
18.882091
0
LINE
8
Layer 1
10
43.794122
20
18.882091
11
43.794100
21
19.302500
0
LINE
8
Layer 1
10
43.794100
20
19.302500
11
43.878202
21
19.554750
0
LINE
8
Layer 1
10
43.878202
20
19.554750
11
43.962587
21
19.722757
0
LINE
8
Layer 1
10
43.962587
20
19.722757
11
44.131074
21
19.890990
0
LINE
8
Layer 1
10
44.131074
20
19.890990
11
44.299278
21
19.975177
0
LINE
8
Layer 1
10
44.299278
20
19.975177
11
44.636200
21
19.975200
0
LINE
8
Layer 1
10
44.636200
20
19.975200
11
44.804687
21
19.891013
0
LINE
8
Layer 1
10
44.804687
20
19.891013
11
44.973174
21
19.722780
0
LINE
8
Layer 1
10
44.973174
20
19.722780
11
45.057558
21
19.554773
0
LINE
8
Layer 1
10
45.057558
20
19.554773
11
45.141661
21
19.302523
0
LINE
8
Layer 1
10
45.141661
20
19.302523
11
45.141700
21
18.882100
0
LINE
8
Layer 1
10
45.141700
20
18.882100
11
45.057598
21
18.629963
0
LINE
8
Layer 1
10
45.057598
20
18.629963
11
44.973213
21
18.461646
0
LINE
8
Layer 1
10
44.973213
20
18.461646
11
44.804726
21
18.293724
0
LINE
8
Layer 1
10
44.804726
20
18.293724
11
44.636239
21
18.209509
0
LINE
8
Layer 1
10
44.636239
20
18.209509
11
44.299300
21
18.209500
0
LINE
8
Layer 1
10
45.731300
20
19.975200
11
46.742200
21
19.975200
0
LINE
8
Layer 1
10
45.731300
20
18.209500
11
45.731300
21
19.975200
0
LINE
8
Layer 1
10
47.163200
20
19.218300
11
48.679100
21
19.218300
0
LINE
8
Layer 1
10
35.355400
20
23.764300
11
36.702730
21
22.908095
0
LINE
8
Layer 1
10
36.702730
20
22.908095
11
35.355400
21
22.051890
0
LINE
8
Layer 1
10
36.653000
20
23.764300
11
38.000610
21
22.908095
0
LINE
8
Layer 1
10
38.000610
20
22.908095
11
36.653000
21
22.051890
0
LINE
8
Layer 1
10
38.674300
20
23.826600
11
38.674300
21
21.989200
0
LINE
8
Layer 1
10
15.067500
20
23.826600
11
15.067500
21
21.989200
0
LINE
8
Layer 1
10
17.088900
20
23.764300
11
15.741400
21
22.908095
0
LINE
8
Layer 1
10
15.741400
20
22.908095
11
17.088900
21
22.051890
0
LINE
8
Layer 1
10
18.386700
20
23.764300
11
17.038920
21
22.908095
0
LINE
8
Layer 1
10
17.038920
20
22.908095
11
18.386700
21
22.051890
0
LINE
8
Layer 1
10
25.523200
20
22.051800
11
25.523200
21
23.764300
0
LINE
8
Layer 1
10
25.523200
20
23.764300
11
26.870890
21
22.908095
0
LINE
8
Layer 1
10
26.870890
20
22.908095
11
25.523200
21
22.051800
0
LINE
8
Layer 1
10
27.544600
20
23.826600
11
27.544600
21
21.989200
0
LINE
8
Layer 1
10
28.218300
20
23.826600
11
28.218300
21
21.989200
0
LINE
8
Layer 1
10
46.348200
20
21.989200
11
45.718300
21
21.989200
0
LINE
8
Layer 1
10
45.718300
20
21.989200
11
45.718300
21
23.826600
0
LINE
8
Layer 1
10
45.718300
20
23.826600
11
46.346200
21
23.826600
0
LINE
8
Layer 1
10
47.488600
20
23.826600
11
48.118900
21
23.826600
0
LINE
8
Layer 1
10
48.118900
20
23.826600
11
48.118900
21
21.989200
0
LINE
8
Layer 1
10
48.118900
20
21.989200
11
47.490300
21
21.989200
0
LINE
8
Layer 1
10
51.405600
20
5.908010
11
50.629772
21
5.111156
0
LINE
8
Layer 1
10
50.629772
20
5.111156
11
50.629800
21
4.128490
0
LINE
8
Layer 1
10
50.629800
20
4.128490
11
57.435600
21
4.128490
0
LINE
8
Layer 1
10
57.435600
20
4.128490
11
57.435600
21
5.111160
0
LINE
8
Layer 1
10
57.435600
20
5.111160
11
56.659772
21
5.908014
0
LINE
8
Layer 1
10
56.659772
20
5.908014
11
51.405600
21
5.908010
0
LINE
8
Layer 1
10
38.882900
20
5.908010
11
38.106789
21
5.111156
0
LINE
8
Layer 1
10
38.106789
20
5.111156
11
38.106700
21
4.128490
0
LINE
8
Layer 1
10
38.106700
20
4.128490
11
44.912800
21
4.128490
0
LINE
8
Layer 1
10
44.912800
20
4.128490
11
44.912800
21
5.111160
0
LINE
8
Layer 1
10
44.912800
20
5.111160
11
44.136689
21
5.908014
0
LINE
8
Layer 1
10
44.136689
20
5.908014
11
38.882900
21
5.908010
0
LINE
8
Layer 1
10
8.408800
20
6.607330
11
7.210290
21
5.497580
0
LINE
8
Layer 1
10
7.210290
20
5.497580
11
7.210290
21
4.128180
0
LINE
8
Layer 1
10
7.210290
20
4.128180
11
17.724100
21
4.128180
0
LINE
8
Layer 1
10
17.724100
20
4.128180
11
17.724100
21
5.497580
0
LINE
8
Layer 1
10
17.724100
20
5.497580
11
16.525620
21
6.607330
0
LINE
8
Layer 1
10
16.525620
20
6.607330
11
8.408800
21
6.607330
0
LINE
8
Layer 1
10
10.531400
20
16.979800
11
10.447254
21
16.146560
0
LINE
8
Layer 1
10
10.447254
20
16.146560
11
10.205913
21
15.370477
0
LINE
8
Layer 1
10
10.205913
20
15.370477
11
9.824030
21
14.668176
0
LINE
8
Layer 1
10
9.824030
20
14.668176
11
9.318263
21
14.056282
0
LINE
8
Layer 1
10
9.318263
20
14.056282
11
8.705267
21
13.551422
0
LINE
8
Layer 1
10
8.705267
20
13.551422
11
8.001698
21
13.170221
0
LINE
8
Layer 1
10
8.001698
20
13.170221
11
7.224210
21
12.929305
0
LINE
8
Layer 1
10
7.224210
20
12.929305
11
6.389460
21
12.845300
0
LINE
8
Layer 1
10
6.389460
20
12.845300
11
5.577624
21
12.925477
0
LINE
8
Layer 1
10
5.577624
20
12.925477
11
4.804388
21
13.160020
0
LINE
8
Layer 1
10
4.804388
20
13.160020
11
4.091481
21
13.539945
0
LINE
8
Layer 1
10
4.091481
20
13.539945
11
3.460631
21
14.056268
0
LINE
8
Layer 1
10
3.460631
20
14.056268
11
2.943374
21
14.685979
0
LINE
8
Layer 1
10
2.943374
20
14.685979
11
2.562764
21
15.397597
0
LINE
8
Layer 1
10
2.562764
20
15.397597
11
2.327799
21
16.169434
0
LINE
8
Layer 1
10
2.327799
20
16.169434
11
2.247480
21
16.979800
0
LINE
8
Layer 1
10
2.247480
20
16.979800
11
2.327799
21
17.790166
0
LINE
8
Layer 1
10
2.327799
20
17.790166
11
2.562764
21
18.562003
0
LINE
8
Layer 1
10
2.562764
20
18.562003
11
2.943374
21
19.273621
0
LINE
8
Layer 1
10
2.943374
20
19.273621
11
3.460631
21
19.903332
0
LINE
8
Layer 1
10
3.460631
20
19.903332
11
4.091481
21
20.419655
0
LINE
8
Layer 1
10
4.091481
20
20.419655
11
4.804388
21
20.799580
0
LINE
8
Layer 1
10
4.804388
20
20.799580
11
5.577624
21
21.034123
0
LINE
8
Layer 1
10
5.577624
20
21.034123
11
6.389460
21
21.114300
0
LINE
8
Layer 1
10
6.389460
20
21.114300
11
7.224210
21
21.030295
0
LINE
8
Layer 1
10
7.224210
20
21.030295
11
8.001698
21
20.789379
0
LINE
8
Layer 1
10
8.001698
20
20.789379
11
8.705267
21
20.408178
0
LINE
8
Layer 1
10
8.705267
20
20.408178
11
9.318263
21
19.903318
0
LINE
8
Layer 1
10
9.318263
20
19.903318
11
9.824030
21
19.291424
0
LINE
8
Layer 1
10
9.824030
20
19.291424
11
10.205913
21
18.589123
0
LINE
8
Layer 1
10
10.205913
20
18.589123
11
10.447254
21
17.813040
0
LINE
8
Layer 1
10
10.447254
20
17.813040
11
10.531400
21
16.979800
0
LINE
8
Layer 1
10
10.531400
20
16.979800
11
10.531400
21
16.979800
0
LINE
8
Layer 1
10
7.889840
20
16.980300
11
7.775610
21
16.407052
0
LINE
8
Layer 1
10
7.775610
20
16.407052
11
7.450310
21
15.921075
0
LINE
8
Layer 1
10
7.450310
20
15.921075
11
6.963464
21
15.596356
0
LINE
8
Layer 1
10
6.963464
20
15.596356
11
6.389190
21
15.482330
0
LINE
8
Layer 1
10
6.389190
20
15.482330
11
5.814916
21
15.596356
0
LINE
8
Layer 1
10
5.814916
20
15.596356
11
5.328070
21
15.921075
0
LINE
8
Layer 1
10
5.328070
20
15.921075
11
5.002770
21
16.407052
0
LINE
8
Layer 1
10
5.002770
20
16.407052
11
4.888540
21
16.980300
0
LINE
8
Layer 1
10
4.888540
20
16.980300
11
5.002770
21
17.553548
0
LINE
8
Layer 1
10
5.002770
20
17.553548
11
5.328070
21
18.039525
0
LINE
8
Layer 1
10
5.328070
20
18.039525
11
5.814916
21
18.364244
0
LINE
8
Layer 1
10
5.814916
20
18.364244
11
6.389190
21
18.478270
0
LINE
8
Layer 1
10
6.389190
20
18.478270
11
6.963464
21
18.364244
0
LINE
8
Layer 1
10
6.963464
20
18.364244
11
7.450310
21
18.039525
0
LINE
8
Layer 1
10
7.450310
20
18.039525
11
7.775610
21
17.553548
0
LINE
8
Layer 1
10
7.775610
20
17.553548
11
7.889840
21
16.980300
0
LINE
8
Layer 1
10
7.889840
20
16.980300
11
7.889840
21
16.980300
0
LINE
8
Layer 1
10
38.807700
20
13.948700
11
38.636354
21
13.088826
0
LINE
8
Layer 1
10
38.636354
20
13.088826
11
38.148403
21
12.359859
0
LINE
8
Layer 1
10
38.148403
20
12.359859
11
37.418133
21
11.872780
0
LINE
8
Layer 1
10
37.418133
20
11.872780
11
36.556720
21
11.701740
0
LINE
8
Layer 1
10
36.556720
20
11.701740
11
35.695307
21
11.872780
0
LINE
8
Layer 1
10
35.695307
20
11.872780
11
34.965037
21
12.359859
0
LINE
8
Layer 1
10
34.965037
20
12.359859
11
34.477086
21
13.088826
0
LINE
8
Layer 1
10
34.477086
20
13.088826
11
34.305740
21
13.948700
0
LINE
8
Layer 1
10
34.305740
20
13.948700
11
34.477086
21
14.808574
0
LINE
8
Layer 1
10
34.477086
20
14.808574
11
34.965037
21
15.537541
0
LINE
8
Layer 1
10
34.965037
20
15.537541
11
35.695307
21
16.024620
0
LINE
8
Layer 1
10
35.695307
20
16.024620
11
36.556720
21
16.195660
0
LINE
8
Layer 1
10
36.556720
20
16.195660
11
37.418133
21
16.024620
0
LINE
8
Layer 1
10
37.418133
20
16.024620
11
38.148403
21
15.537541
0
LINE
8
Layer 1
10
38.148403
20
15.537541
11
38.636354
21
14.808574
0
LINE
8
Layer 1
10
38.636354
20
14.808574
11
38.807700
21
13.948700
0
LINE
8
Layer 1
10
38.807700
20
13.948700
11
38.807700
21
13.948700
0
LINE
8
Layer 1
10
38.307500
20
13.948700
11
38.174231
21
13.279942
0
LINE
8
Layer 1
10
38.174231
20
13.279942
11
37.794714
21
12.712996
0
LINE
8
Layer 1
10
37.794714
20
12.712996
11
37.226727
21
12.334174
0
LINE
8
Layer 1
10
37.226727
20
12.334174
11
36.556740
21
12.201150
0
LINE
8
Layer 1
10
36.556740
20
12.201150
11
35.886753
21
12.334174
0
LINE
8
Layer 1
10
35.886753
20
12.334174
11
35.318766
21
12.712996
0
LINE
8
Layer 1
10
35.318766
20
12.712996
11
34.939249
21
13.279942
0
LINE
8
Layer 1
10
34.939249
20
13.279942
11
34.805980
21
13.948700
0
LINE
8
Layer 1
10
34.805980
20
13.948700
11
34.939249
21
14.617458
0
LINE
8
Layer 1
10
34.939249
20
14.617458
11
35.318766
21
15.184404
0
LINE
8
Layer 1
10
35.318766
20
15.184404
11
35.886753
21
15.563226
0
LINE
8
Layer 1
10
35.886753
20
15.563226
11
36.556740
21
15.696250
0
LINE
8
Layer 1
10
36.556740
20
15.696250
11
37.226727
21
15.563226
0
LINE
8
Layer 1
10
37.226727
20
15.563226
11
37.794714
21
15.184404
0
LINE
8
Layer 1
10
37.794714
20
15.184404
11
38.174231
21
14.617458
0
LINE
8
Layer 1
10
38.174231
20
14.617458
11
38.307500
21
13.948700
0
LINE
8
Layer 1
10
38.307500
20
13.948700
11
38.307500
21
13.948700
0
LINE
8
Layer 1
10
56.520800
20
13.948700
11
56.369076
21
13.187367
0
LINE
8
Layer 1
10
56.369076
20
13.187367
11
55.937002
21
12.541939
0
LINE
8
Layer 1
10
55.937002
20
12.541939
11
55.290358
21
12.110679
0
LINE
8
Layer 1
10
55.290358
20
12.110679
11
54.527590
21
11.959240
0
LINE
8
Layer 1
10
54.527590
20
11.959240
11
53.751743
21
12.115582
0
LINE
8
Layer 1
10
53.751743
20
12.115582
11
53.118178
21
12.541939
0
LINE
8
Layer 1
10
53.118178
20
12.541939
11
52.691016
21
13.174312
0
LINE
8
Layer 1
10
52.691016
20
13.174312
11
52.534380
21
13.948700
0
LINE
8
Layer 1
10
52.534380
20
13.948700
11
52.686104
21
14.710033
0
LINE
8
Layer 1
10
52.686104
20
14.710033
11
53.118178
21
15.355461
0
LINE
8
Layer 1
10
53.118178
20
15.355461
11
53.764822
21
15.786721
0
LINE
8
Layer 1
10
53.764822
20
15.786721
11
54.527590
21
15.938160
0
LINE
8
Layer 1
10
54.527590
20
15.938160
11
55.290358
21
15.786721
0
LINE
8
Layer 1
10
55.290358
20
15.786721
11
55.937002
21
15.355461
0
LINE
8
Layer 1
10
55.937002
20
15.355461
11
56.369076
21
14.710033
0
LINE
8
Layer 1
10
56.369076
20
14.710033
11
56.520800
21
13.948700
0
LINE
8
Layer 1
10
56.520800
20
13.948700
11
56.520800
21
13.948700
0
LINE
8
Layer 1
10
47.185100
20
13.948700
11
47.033376
21
13.187367
0
LINE
8
Layer 1
10
47.033376
20
13.187367
11
46.601302
21
12.541939
0
LINE
8
Layer 1
10
46.601302
20
12.541939
11
45.954658
21
12.110679
0
LINE
8
Layer 1
10
45.954658
20
12.110679
11
45.191890
21
11.959240
0
LINE
8
Layer 1
10
45.191890
20
11.959240
11
44.416043
21
12.115582
0
LINE
8
Layer 1
10
44.416043
20
12.115582
11
43.782478
21
12.541939
0
LINE
8
Layer 1
10
43.782478
20
12.541939
11
43.355316
21
13.174312
0
LINE
8
Layer 1
10
43.355316
20
13.174312
11
43.198680
21
13.948700
0
LINE
8
Layer 1
10
43.198680
20
13.948700
11
43.350404
21
14.710033
0
LINE
8
Layer 1
10
43.350404
20
14.710033
11
43.782478
21
15.355461
0
LINE
8
Layer 1
10
43.782478
20
15.355461
11
44.429122
21
15.786721
0
LINE
8
Layer 1
10
44.429122
20
15.786721
11
45.191890
21
15.938160
0
LINE
8
Layer 1
10
45.191890
20
15.938160
11
45.954658
21
15.786721
0
LINE
8
Layer 1
10
45.954658
20
15.786721
11
46.601302
21
15.355461
0
LINE
8
Layer 1
10
46.601302
20
15.355461
11
47.033376
21
14.710033
0
LINE
8
Layer 1
10
47.033376
20
14.710033
11
47.185100
21
13.948700
0
LINE
8
Layer 1
10
47.185100
20
13.948700
11
47.185100
21
13.948700
0
LINE
8
Layer 1
10
48.930300
20
27.830300
11
48.778576
21
27.068967
0
LINE
8
Layer 1
10
48.778576
20
27.068967
11
48.346502
21
26.423539
0
LINE
8
Layer 1
10
48.346502
20
26.423539
11
47.699858
21
25.992279
0
LINE
8
Layer 1
10
47.699858
20
25.992279
11
46.937090
21
25.840840
0
LINE
8
Layer 1
10
46.937090
20
25.840840
11
46.161243
21
25.997182
0
LINE
8
Layer 1
10
46.161243
20
25.997182
11
45.527678
21
26.423539
0
LINE
8
Layer 1
10
45.527678
20
26.423539
11
45.100516
21
27.055912
0
LINE
8
Layer 1
10
45.100516
20
27.055912
11
44.943880
21
27.830300
0
LINE
8
Layer 1
10
44.943880
20
27.830300
11
45.095604
21
28.591633
0
LINE
8
Layer 1
10
45.095604
20
28.591633
11
45.527678
21
29.237061
0
LINE
8
Layer 1
10
45.527678
20
29.237061
11
46.174322
21
29.668321
0
LINE
8
Layer 1
10
46.174322
20
29.668321
11
46.937090
21
29.819760
0
LINE
8
Layer 1
10
46.937090
20
29.819760
11
47.699858
21
29.668321
0
LINE
8
Layer 1
10
47.699858
20
29.668321
11
48.346502
21
29.237061
0
LINE
8
Layer 1
10
48.346502
20
29.237061
11
48.778576
21
28.591633
0
LINE
8
Layer 1
10
48.778576
20
28.591633
11
48.930300
21
27.830300
0
LINE
8
Layer 1
10
48.930300
20
27.830300
11
48.930300
21
27.830300
0
LINE
8
Layer 1
10
18.636900
20
27.830300
11
18.485150
21
27.068964
0
LINE
8
Layer 1
10
18.485150
20
27.068964
11
18.053049
21
26.423546
0
LINE
8
Layer 1
10
18.053049
20
26.423546
11
17.406382
21
25.992307
0
LINE
8
Layer 1
10
17.406382
20
25.992307
11
16.643600
21
25.840900
0
LINE
8
Layer 1
10
16.643600
20
25.840900
11
15.867770
21
25.997238
0
LINE
8
Layer 1
10
15.867770
20
25.997238
11
15.234215
21
26.423582
0
LINE
8
Layer 1
10
15.234215
20
26.423582
11
14.807053
21
27.055934
0
LINE
8
Layer 1
10
14.807053
20
27.055934
11
14.650400
21
27.830300
0
LINE
8
Layer 1
10
14.650400
20
27.830300
11
14.802112
21
28.591643
0
LINE
8
Layer 1
10
14.802112
20
28.591643
11
15.234180
21
29.237083
0
LINE
8
Layer 1
10
15.234180
20
29.237083
11
15.880825
21
29.668355
0
LINE
8
Layer 1
10
15.880825
20
29.668355
11
16.643600
21
29.819800
0
LINE
8
Layer 1
10
16.643600
20
29.819800
11
17.406405
21
29.668383
0
LINE
8
Layer 1
10
17.406405
20
29.668383
11
18.053085
21
29.237118
0
LINE
8
Layer 1
10
18.053085
20
29.237118
11
18.485179
21
28.591666
0
LINE
8
Layer 1
10
18.485179
20
28.591666
11
18.636900
21
27.830300
0
LINE
8
Layer 1
10
18.636900
20
27.830300
11
18.636900
21
27.830300
0
LINE
8
Layer 1
10
28.734700
20
27.830300
11
28.578047
21
27.055934
0
LINE
8
Layer 1
10
28.578047
20
27.055934
11
28.150885
21
26.423582
0
LINE
8
Layer 1
10
28.150885
20
26.423582
11
27.517330
21
25.997238
0
LINE
8
Layer 1
10
27.517330
20
25.997238
11
26.741500
21
25.840900
0
LINE
8
Layer 1
10
26.741500
20
25.840900
11
25.965670
21
25.997238
0
LINE
8
Layer 1
10
25.965670
20
25.997238
11
25.332115
21
26.423582
0
LINE
8
Layer 1
10
25.332115
20
26.423582
11
24.904953
21
27.055934
0
LINE
8
Layer 1
10
24.904953
20
27.055934
11
24.748300
21
27.830300
0
LINE
8
Layer 1
10
24.748300
20
27.830300
11
24.900012
21
28.591643
0
LINE
8
Layer 1
10
24.900012
20
28.591643
11
25.332080
21
29.237083
0
LINE
8
Layer 1
10
25.332080
20
29.237083
11
25.978725
21
29.668355
0
LINE
8
Layer 1
10
25.978725
20
29.668355
11
26.741500
21
29.819800
0
LINE
8
Layer 1
10
26.741500
20
29.819800
11
27.504275
21
29.668355
0
LINE
8
Layer 1
10
27.504275
20
29.668355
11
28.150920
21
29.237083
0
LINE
8
Layer 1
10
28.150920
20
29.237083
11
28.582988
21
28.591643
0
LINE
8
Layer 1
10
28.582988
20
28.591643
11
28.734700
21
27.830300
0
LINE
8
Layer 1
10
28.734700
20
27.830300
11
28.734700
21
27.830300
0
LINE
8
Layer 1
10
38.832500
20
27.830300
11
38.680776
21
27.068967
0
LINE
8
Layer 1
10
38.680776
20
27.068967
11
38.248702
21
26.423539
0
LINE
8
Layer 1
10
38.248702
20
26.423539
11
37.602058
21
25.992279
0
LINE
8
Layer 1
10
37.602058
20
25.992279
11
36.839290
21
25.840840
0
LINE
8
Layer 1
10
36.839290
20
25.840840
11
36.063443
21
25.997182
0
LINE
8
Layer 1
10
36.063443
20
25.997182
11
35.429878
21
26.423539
0
LINE
8
Layer 1
10
35.429878
20
26.423539
11
35.002716
21
27.055912
0
LINE
8
Layer 1
10
35.002716
20
27.055912
11
34.846080
21
27.830300
0
LINE
8
Layer 1
10
34.846080
20
27.830300
11
34.997804
21
28.591633
0
LINE
8
Layer 1
10
34.997804
20
28.591633
11
35.429878
21
29.237061
0
LINE
8
Layer 1
10
35.429878
20
29.237061
11
36.076522
21
29.668321
0
LINE
8
Layer 1
10
36.076522
20
29.668321
11
36.839290
21
29.819760
0
LINE
8
Layer 1
10
36.839290
20
29.819760
11
37.602058
21
29.668321
0
LINE
8
Layer 1
10
37.602058
20
29.668321
11
38.248702
21
29.237061
0
LINE
8
Layer 1
10
38.248702
20
29.237061
11
38.680776
21
28.591633
0
LINE
8
Layer 1
10
38.680776
20
28.591633
11
38.832500
21
27.830300
0
LINE
8
Layer 1
10
38.832500
20
27.830300
11
38.832500
21
27.830300
0
LINE
8
Layer 1
10
35.376500
20
19.055100
11
35.520526
21
18.611478
0
LINE
8
Layer 1
10
35.520526
20
18.611478
11
35.796341
21
18.255541
0
LINE
8
Layer 1
10
35.796341
20
18.255541
11
36.173385
21
18.018841
0
LINE
8
Layer 1
10
36.173385
20
18.018841
11
36.621100
21
17.932930
0
LINE
8
Layer 1
10
36.621100
20
17.932930
11
37.068815
21
18.018841
0
LINE
8
Layer 1
10
37.068815
20
18.018841
11
37.445860
21
18.255541
0
LINE
8
Layer 1
10
37.445860
20
18.255541
11
37.721675
21
18.611478
0
LINE
8
Layer 1
10
37.721675
20
18.611478
11
37.865700
21
19.055100
0
LINE
8
Layer 1
10
35.376500
20
19.055100
11
35.356462
21
19.262195
0
LINE
8
Layer 1
10
35.356462
20
19.262195
11
35.449631
21
19.762444
0
LINE
8
Layer 1
10
35.449631
20
19.762444
11
35.705571
21
20.174365
0
LINE
8
Layer 1
10
35.705571
20
20.174365
11
35.439153
21
20.251778
0
LINE
8
Layer 1
10
35.439153
20
20.251778
11
35.032365
21
20.074533
0
LINE
8
Layer 1
10
35.032365
20
20.074533
11
34.863702
21
19.646694
0
LINE
8
Layer 1
10
34.863702
20
19.646694
11
35.011833
21
19.243127
0
LINE
8
Layer 1
10
35.011833
20
19.243127
11
35.376499
21
19.055100
0
LINE
8
Layer 1
10
35.376499
20
19.055100
11
35.376500
21
19.055100
0
LINE
8
Layer 1
10
37.866000
20
19.055100
11
38.230419
21
19.243127
0
LINE
8
Layer 1
10
38.230419
20
19.243127
11
38.378515
21
19.646694
0
LINE
8
Layer 1
10
38.378515
20
19.646694
11
38.209923
21
20.074532
0
LINE
8
Layer 1
10
38.209923
20
20.074532
11
37.802782
21
20.251778
0
LINE
8
Layer 1
10
37.802782
20
20.251778
11
37.536929
21
20.174365
0
LINE
8
Layer 1
10
37.536929
20
20.174365
11
37.792481
21
19.762444
0
LINE
8
Layer 1
10
37.792481
20
19.762444
11
37.885473
21
19.262195
0
LINE
8
Layer 1
10
37.885473
20
19.262195
11
37.866000
21
19.055100
0
LINE
8
Layer 1
10
0.067549
20
28.933200
11
0.301369
21
30.091419
0
LINE
8
Layer 1
10
0.301369
20
30.091419
11
0.938999
21
31.040425
0
LINE
8
Layer 1
10
0.938999
20
31.040425
11
1.884692
21
31.681969
0
LINE
8
Layer 1
10
1.884692
20
31.681969
11
3.042700
21
31.917800
0
LINE
8
Layer 1
10
0.052759
20
4.997910
11
0.052759
21
28.947700
0
LINE
8
Layer 1
10
3.042970
20
2.013310
11
1.884843
21
2.246792
0
LINE
8
Layer 1
10
1.884843
20
2.246792
11
0.939132
21
2.883260
0
LINE
8
Layer 1
10
0.939132
20
2.883260
11
0.301485
21
3.827198
0
LINE
8
Layer 1
10
0.301485
20
3.827198
11
0.067549
21
4.983090
0
LINE
8
Layer 1
10
3.057490
20
31.947100
11
62.028100
21
31.947100
0
LINE
8
Layer 1
10
62.028100
20
2.013510
11
3.057490
21
2.013510
0
LINE
8
Layer 1
10
62.013400
20
31.917500
11
63.173581
21
31.681795
0
LINE
8
Layer 1
10
63.173581
20
31.681795
11
64.124376
21
31.040261
0
LINE
8
Layer 1
10
64.124376
20
31.040261
11
64.767171
21
30.091266
0
LINE
8
Layer 1
10
64.767171
20
30.091266
11
65.003350
21
28.933180
0
LINE
8
Layer 1
10
65.003400
20
4.983090
11
64.767263
21
3.827164
0
LINE
8
Layer 1
10
64.767263
20
3.827164
11
64.124539
21
2.883176
0
LINE
8
Layer 1
10
64.124539
20
2.883176
11
63.173758
21
2.246698
0
LINE
8
Layer 1
10
63.173758
20
2.246698
11
62.013450
21
2.013300
0
LINE
8
Layer 1
10
65.032900
20
28.947700
11
65.032900
21
4.997910
 0 
ENDSEC
 0 
EOF