999
"DXF R12 Output" (www.mydxf.blogspot.com)
 0 
SECTION
 2 
HEADER
 9 
$ACADVER
 1 
AC1009
 9 
$EXTMIN
 10 
 0 
 20 
 0 
 9 
$EXTMAX
 10 
 8.5 
 20 
 11 
 0 
ENDSEC
 0 
SECTION
 2 
ENTITIES
0
LINE
8
Layer 1
10
51.284200
20
33.895300
11
51.539408
21
33.615364
0
LINE
8
Layer 1
10
51.539408
20
33.615364
11
51.794619
21
33.204208
0
LINE
8
Layer 1
10
51.794619
20
33.204208
11
52.049827
21
32.653084
0
LINE
8
Layer 1
10
52.049827
20
32.653084
11
52.179454
21
31.961992
0
LINE
8
Layer 1
10
52.179454
20
31.961992
11
52.179400
21
31.410800
0
LINE
8
Layer 1
10
52.179400
20
31.410800
11
52.049773
21
30.724082
0
LINE
8
Layer 1
10
52.049773
20
30.724082
11
51.794565
21
30.172958
0
LINE
8
Layer 1
10
51.794565
20
30.172958
11
51.539354
21
29.757428
0
LINE
8
Layer 1
10
51.539354
20
29.757428
11
51.284146
21
29.486240
0
LINE
8
Layer 1
10
49.117046
20
32.792980
11
49.368204
21
32.928574
0
LINE
8
Layer 1
10
49.368204
20
32.928574
11
49.753042
21
33.344104
0
LINE
8
Layer 1
10
49.753042
20
33.344104
11
49.753100
21
30.448500
0
LINE
8
Layer 1
10
46.305640
20
32.653000
11
46.305600
21
32.793000
0
LINE
8
Layer 1
10
46.305600
20
32.793000
11
46.435227
21
33.064188
0
LINE
8
Layer 1
10
46.435227
20
33.064188
11
46.564857
21
33.204156
0
LINE
8
Layer 1
10
46.564857
20
33.204156
11
46.816015
21
33.344124
0
LINE
8
Layer 1
10
46.816015
20
33.344124
11
47.326400
21
33.344100
0
LINE
8
Layer 1
10
47.326400
20
33.344100
11
47.585660
21
33.204132
0
LINE
8
Layer 1
10
47.585660
20
33.204132
11
47.711238
21
33.064164
0
LINE
8
Layer 1
10
47.711238
20
33.064164
11
47.836816
21
32.792976
0
LINE
8
Layer 1
10
47.836816
20
32.792976
11
47.836800
21
32.513100
0
LINE
8
Layer 1
10
47.836800
20
32.513100
11
47.711222
21
32.241912
0
LINE
8
Layer 1
10
47.711222
20
32.241912
11
47.456014
21
31.826382
0
LINE
8
Layer 1
10
47.456014
20
31.826382
11
46.179974
21
30.448572
0
LINE
8
Layer 1
10
46.179974
20
30.448572
11
47.966500
21
30.448500
0
LINE
8
Layer 1
10
44.393460
20
33.344090
11
44.012672
21
33.204122
0
LINE
8
Layer 1
10
44.012672
20
33.204122
11
43.753414
21
32.792966
0
LINE
8
Layer 1
10
43.753414
20
32.792966
11
43.627834
21
32.101875
0
LINE
8
Layer 1
10
43.627834
20
32.101875
11
43.627800
21
31.690800
0
LINE
8
Layer 1
10
43.627800
20
31.690800
11
43.753380
21
30.999708
0
LINE
8
Layer 1
10
43.753380
20
30.999708
11
44.012638
21
30.586365
0
LINE
8
Layer 1
10
44.012638
20
30.586365
11
44.393426
21
30.448584
0
LINE
8
Layer 1
10
44.393426
20
30.448584
11
44.648600
21
30.448500
0
LINE
8
Layer 1
10
44.648600
20
30.448500
11
45.033438
21
30.586281
0
LINE
8
Layer 1
10
45.033438
20
30.586281
11
45.284593
21
30.999624
0
LINE
8
Layer 1
10
45.284593
20
30.999624
11
45.414223
21
31.690716
0
LINE
8
Layer 1
10
45.414223
20
31.690716
11
45.414300
21
32.101900
0
LINE
8
Layer 1
10
45.414300
20
32.101900
11
45.284670
21
32.792991
0
LINE
8
Layer 1
10
45.284670
20
32.792991
11
45.033515
21
33.204147
0
LINE
8
Layer 1
10
45.033515
20
33.204147
11
44.648677
21
33.344115
0
LINE
8
Layer 1
10
44.648677
20
33.344115
11
44.393400
21
33.344100
0
LINE
8
Layer 1
10
41.201410
20
32.653008
11
41.201400
21
32.793000
0
LINE
8
Layer 1
10
41.201400
20
32.793000
11
41.331027
21
33.064188
0
LINE
8
Layer 1
10
41.331027
20
33.064188
11
41.460657
21
33.204156
0
LINE
8
Layer 1
10
41.460657
20
33.204156
11
41.711815
21
33.344124
0
LINE
8
Layer 1
10
41.711815
20
33.344124
11
42.222300
21
33.344100
0
LINE
8
Layer 1
10
42.222300
20
33.344100
11
42.481560
21
33.204132
0
LINE
8
Layer 1
10
42.481560
20
33.204132
11
42.607138
21
33.064164
0
LINE
8
Layer 1
10
42.607138
20
33.064164
11
42.732716
21
32.792976
0
LINE
8
Layer 1
10
42.732716
20
32.792976
11
42.732700
21
32.513100
0
LINE
8
Layer 1
10
42.732700
20
32.513100
11
42.607122
21
32.241912
0
LINE
8
Layer 1
10
42.607122
20
32.241912
11
42.351914
21
31.826382
0
LINE
8
Layer 1
10
42.351914
20
31.826382
11
41.075874
21
30.448572
0
LINE
8
Layer 1
10
41.075874
20
30.448572
11
42.862300
21
30.448500
0
LINE
8
Layer 1
10
40.310100
20
33.895210
11
40.054892
21
33.615274
0
LINE
8
Layer 1
10
40.054892
20
33.615274
11
39.799684
21
33.204118
0
LINE
8
Layer 1
10
39.799684
20
33.204118
11
39.544473
21
32.652994
0
LINE
8
Layer 1
10
39.544473
20
32.652994
11
39.414846
21
31.961902
0
LINE
8
Layer 1
10
39.414846
20
31.961902
11
39.414900
21
31.410800
0
LINE
8
Layer 1
10
39.414900
20
31.410800
11
39.544527
21
30.724082
0
LINE
8
Layer 1
10
39.544527
20
30.724082
11
39.799738
21
30.172958
0
LINE
8
Layer 1
10
39.799738
20
30.172958
11
40.054946
21
29.757428
0
LINE
8
Layer 1
10
40.054946
20
29.757428
11
40.310154
21
29.486240
0
LINE
8
Layer 1
10
36.862900
20
33.344100
11
36.862900
21
30.448500
0
LINE
8
Layer 1
10
35.841960
20
31.139592
11
35.716380
21
30.999624
0
LINE
8
Layer 1
10
35.716380
20
30.999624
11
35.841960
21
30.861843
0
LINE
8
Layer 1
10
35.841960
20
30.861843
11
35.971587
21
30.999624
0
LINE
8
Layer 1
10
35.971587
20
30.999624
11
35.841960
21
31.139592
0
LINE
8
Layer 1
10
33.160200
20
33.344092
11
33.160200
21
30.448500
0
LINE
8
Layer 1
10
34.950710
20
33.344090
11
33.160200
21
31.410780
0
LINE
8
Layer 1
10
33.800246
20
32.101872
11
34.950706
21
30.448502
0
LINE
8
Layer 1
10
32.269136
20
32.928562
11
32.013928
21
33.204124
0
LINE
8
Layer 1
10
32.013928
20
33.204124
11
31.629090
21
33.344092
0
LINE
8
Layer 1
10
31.629090
20
33.344092
11
31.118700
21
33.344100
0
LINE
8
Layer 1
10
31.118700
20
33.344100
11
30.737912
21
33.204132
0
LINE
8
Layer 1
10
30.737912
20
33.204132
11
30.482704
21
32.928570
0
LINE
8
Layer 1
10
30.482704
20
32.928570
11
30.482700
21
32.653000
0
LINE
8
Layer 1
10
30.482700
20
32.653000
11
30.608280
21
32.377438
0
LINE
8
Layer 1
10
30.608280
20
32.377438
11
30.737907
21
32.241844
0
LINE
8
Layer 1
10
30.737907
20
32.241844
11
30.993118
21
32.101876
0
LINE
8
Layer 1
10
30.993118
20
32.101876
11
31.758741
21
31.826314
0
LINE
8
Layer 1
10
31.758741
20
31.826314
11
32.013949
21
31.690720
0
LINE
8
Layer 1
10
32.013949
20
31.690720
11
32.139527
21
31.550752
0
LINE
8
Layer 1
10
32.139527
20
31.550752
11
32.269157
21
31.275190
0
LINE
8
Layer 1
10
32.269157
20
31.275190
11
32.269200
21
30.861900
0
LINE
8
Layer 1
10
32.269200
20
30.861900
11
32.013992
21
30.586338
0
LINE
8
Layer 1
10
32.013992
20
30.586338
11
31.629154
21
30.448557
0
LINE
8
Layer 1
10
31.629154
20
30.448557
11
31.118700
21
30.448500
0
LINE
8
Layer 1
10
31.118700
20
30.448500
11
30.737912
21
30.586281
0
LINE
8
Layer 1
10
30.737912
20
30.586281
11
30.482704
21
30.861843
0
LINE
8
Layer 1
10
27.926574
20
33.344083
11
27.926600
21
30.448500
0
LINE
8
Layer 1
10
27.926600
20
33.344090
11
28.821800
21
33.344100
0
LINE
8
Layer 1
10
28.821800
20
33.344100
11
29.206638
21
33.204132
0
LINE
8
Layer 1
10
29.206638
20
33.204132
11
29.457796
21
32.928570
0
LINE
8
Layer 1
10
29.457796
20
32.928570
11
29.587426
21
32.653008
0
LINE
8
Layer 1
10
29.587426
20
32.653008
11
29.717053
21
32.241852
0
LINE
8
Layer 1
10
29.717053
20
32.241852
11
29.717100
21
31.550800
0
LINE
8
Layer 1
10
29.717100
20
31.550800
11
29.587473
21
31.139644
0
LINE
8
Layer 1
10
29.587473
20
31.139644
11
29.457843
21
30.861895
0
LINE
8
Layer 1
10
29.457843
20
30.861895
11
29.206685
21
30.586333
0
LINE
8
Layer 1
10
29.206685
20
30.586333
11
28.821847
21
30.448552
0
LINE
8
Layer 1
10
28.821847
20
30.448552
11
27.926600
21
30.448500
0
LINE
8
Layer 1
10
25.504100
20
31.962000
11
25.374500
21
32.241900
0
LINE
8
Layer 1
10
25.374500
20
32.241900
11
24.993700
21
32.377500
0
LINE
8
Layer 1
10
24.993700
20
32.377500
11
24.608900
21
32.377500
0
LINE
8
Layer 1
10
24.608900
20
32.377500
11
24.224062
21
32.241906
0
LINE
8
Layer 1
10
24.224062
20
32.241906
11
24.098484
21
31.961970
0
LINE
8
Layer 1
10
24.098484
20
31.961970
11
24.224062
21
31.690782
0
LINE
8
Layer 1
10
24.224062
20
31.690782
11
24.483321
21
31.550814
0
LINE
8
Layer 1
10
24.483321
20
31.550814
11
25.119316
21
31.410846
0
LINE
8
Layer 1
10
25.119316
20
31.410846
11
25.374524
21
31.275252
0
LINE
8
Layer 1
10
25.374524
20
31.275252
11
25.504153
21
30.999690
0
LINE
8
Layer 1
10
25.504153
20
30.999690
11
25.504100
21
30.861900
0
LINE
8
Layer 1
10
25.504100
20
30.861900
11
25.374471
21
30.586338
0
LINE
8
Layer 1
10
25.374471
20
30.586338
11
24.993684
21
30.448557
0
LINE
8
Layer 1
10
24.993684
20
30.448557
11
24.608900
21
30.448500
0
LINE
8
Layer 1
10
24.608900
20
30.448500
11
24.224000
21
30.586300
0
LINE
8
Layer 1
10
24.224000
20
30.586300
11
24.098400
21
30.861900
0
LINE
8
Layer 1
10
20.395900
20
32.377500
11
20.395900
21
30.448500
0
LINE
8
Layer 1
10
20.395900
20
31.826310
11
20.780738
21
32.241840
0
LINE
8
Layer 1
10
20.780738
20
32.241840
11
21.035946
21
32.377434
0
LINE
8
Layer 1
10
21.035946
20
32.377434
11
21.416700
21
32.377500
0
LINE
8
Layer 1
10
21.416700
20
32.377500
11
21.675959
21
32.241906
0
LINE
8
Layer 1
10
21.675959
20
32.241906
11
21.801538
21
31.826376
0
LINE
8
Layer 1
10
21.801538
20
31.826376
11
21.801600
21
30.448500
0
LINE
8
Layer 1
10
21.801600
20
31.826310
11
22.186438
21
32.241840
0
LINE
8
Layer 1
10
22.186438
20
32.241840
11
22.437595
21
32.377434
0
LINE
8
Layer 1
10
22.437595
20
32.377434
11
22.822400
21
32.377500
0
LINE
8
Layer 1
10
22.822400
20
32.377500
11
23.077608
21
32.241906
0
LINE
8
Layer 1
10
23.077608
20
32.241906
11
23.207237
21
31.826376
0
LINE
8
Layer 1
10
23.207237
20
31.826376
11
23.207200
21
30.448500
0
LINE
8
Layer 1
10
18.735000
20
32.377500
11
18.735000
21
30.448500
0
LINE
8
Layer 1
10
18.735000
20
31.550750
11
18.864630
21
31.961906
0
LINE
8
Layer 1
10
18.864630
20
31.961906
11
19.119838
21
32.241842
0
LINE
8
Layer 1
10
19.119838
20
32.241842
11
19.375046
21
32.377436
0
LINE
8
Layer 1
10
19.375046
20
32.377436
11
19.755800
21
32.377500
0
LINE
8
Layer 1
10
16.822940
20
32.377500
11
16.571783
21
32.241906
0
LINE
8
Layer 1
10
16.571783
20
32.241906
11
16.312524
21
31.961970
0
LINE
8
Layer 1
10
16.312524
20
31.961970
11
16.186946
21
31.550814
0
LINE
8
Layer 1
10
16.186946
20
31.550814
11
16.187000
21
31.275200
0
LINE
8
Layer 1
10
16.187000
20
31.275200
11
16.312578
21
30.861857
0
LINE
8
Layer 1
10
16.312578
20
30.861857
11
16.571837
21
30.586295
0
LINE
8
Layer 1
10
16.571837
20
30.586295
11
16.822994
21
30.448514
0
LINE
8
Layer 1
10
16.822994
20
30.448514
11
17.207800
21
30.448500
0
LINE
8
Layer 1
10
17.207800
20
30.448500
11
17.463008
21
30.586281
0
LINE
8
Layer 1
10
17.463008
20
30.586281
11
17.718216
21
30.861843
0
LINE
8
Layer 1
10
17.718216
20
30.861843
11
17.843795
21
31.275186
0
LINE
8
Layer 1
10
17.843795
20
31.275186
11
17.843800
21
31.550800
0
LINE
8
Layer 1
10
17.843800
20
31.550800
11
17.718221
21
31.961956
0
LINE
8
Layer 1
10
17.718221
20
31.961956
11
17.463013
21
32.241892
0
LINE
8
Layer 1
10
17.463013
20
32.241892
11
17.207805
21
32.377486
0
LINE
8
Layer 1
10
17.207805
20
32.377486
11
16.823000
21
32.377500
0
LINE
8
Layer 1
10
15.551010
20
33.344154
11
15.291700
21
33.344100
0
LINE
8
Layer 1
10
15.291700
20
33.344100
11
15.040543
21
33.204132
0
LINE
8
Layer 1
10
15.040543
20
33.204132
11
14.910914
21
32.792976
0
LINE
8
Layer 1
10
14.910914
20
32.792976
11
14.911000
21
30.448500
0
LINE
8
Layer 1
10
14.530213
20
32.377430
11
15.421400
21
32.377500
0
LINE
8
Layer 1
10
13.764580
20
32.377500
11
13.764600
21
30.448500
0
LINE
8
Layer 1
10
13.764600
20
31.961900
11
13.509392
21
32.241836
0
LINE
8
Layer 1
10
13.509392
20
32.241836
11
13.254184
21
32.377430
0
LINE
8
Layer 1
10
13.254184
20
32.377430
11
12.869300
21
32.377500
0
LINE
8
Layer 1
10
12.869300
20
32.377500
11
12.618143
21
32.241906
0
LINE
8
Layer 1
10
12.618143
20
32.241906
11
12.358884
21
31.961970
0
LINE
8
Layer 1
10
12.358884
20
31.961970
11
12.233306
21
31.550814
0
LINE
8
Layer 1
10
12.233306
20
31.550814
11
12.233300
21
31.275200
0
LINE
8
Layer 1
10
12.233300
20
31.275200
11
12.358878
21
30.861857
0
LINE
8
Layer 1
10
12.358878
20
30.861857
11
12.618137
21
30.586295
0
LINE
8
Layer 1
10
12.618137
20
30.586295
11
12.869294
21
30.448514
0
LINE
8
Layer 1
10
12.869294
20
30.448514
11
13.254100
21
30.448500
0
LINE
8
Layer 1
10
13.254100
20
30.448500
11
13.509308
21
30.586281
0
LINE
8
Layer 1
10
13.509308
20
30.586281
11
13.764516
21
30.861843
0
LINE
8
Layer 1
10
10.698000
20
32.377500
11
10.698000
21
30.448500
0
LINE
8
Layer 1
10
10.698000
20
31.550750
11
10.827630
21
31.961906
0
LINE
8
Layer 1
10
10.827630
20
31.961906
11
11.082838
21
32.241842
0
LINE
8
Layer 1
10
11.082838
20
32.241842
11
11.338046
21
32.377436
0
LINE
8
Layer 1
10
11.338046
20
32.377436
11
11.718800
21
32.377500
0
LINE
8
Layer 1
10
9.037090
20
32.377500
11
9.037130
21
30.448500
0
LINE
8
Layer 1
10
9.037130
20
31.550750
11
9.166760
21
31.961906
0
LINE
8
Layer 1
10
9.166760
20
31.961906
11
9.421968
21
32.241842
0
LINE
8
Layer 1
10
9.421968
20
32.241842
11
9.677176
21
32.377436
0
LINE
8
Layer 1
10
9.677176
20
32.377436
11
10.058000
21
32.377500
0
LINE
8
Layer 1
10
6.614710
20
31.550814
11
8.145920
21
31.550800
0
LINE
8
Layer 1
10
8.145920
20
31.550800
11
8.145920
21
31.826400
0
LINE
8
Layer 1
10
8.145920
20
31.826400
11
8.020341
21
32.101962
0
LINE
8
Layer 1
10
8.020341
20
32.101962
11
7.890712
21
32.241930
0
LINE
8
Layer 1
10
7.890712
20
32.241930
11
7.635504
21
32.377524
0
LINE
8
Layer 1
10
7.635504
20
32.377524
11
7.250660
21
32.377500
0
LINE
8
Layer 1
10
7.250660
20
32.377500
11
6.999503
21
32.241906
0
LINE
8
Layer 1
10
6.999503
20
32.241906
11
6.740244
21
31.961970
0
LINE
8
Layer 1
10
6.740244
20
31.961970
11
6.614666
21
31.550814
0
LINE
8
Layer 1
10
6.614666
20
31.550814
11
6.614670
21
31.275200
0
LINE
8
Layer 1
10
6.614670
20
31.275200
11
6.740248
21
30.861857
0
LINE
8
Layer 1
10
6.740248
20
30.861857
11
6.999507
21
30.586295
0
LINE
8
Layer 1
10
6.999507
20
30.586295
11
7.250664
21
30.448514
0
LINE
8
Layer 1
10
7.250664
20
30.448514
11
7.635500
21
30.448500
0
LINE
8
Layer 1
10
7.635500
20
30.448500
11
7.890708
21
30.586281
0
LINE
8
Layer 1
10
7.890708
20
30.586281
11
8.145916
21
30.861843
0
LINE
8
Layer 1
10
5.209000
20
33.344100
11
5.209000
21
30.448500
0
LINE
8
Layer 1
10
4.317800
20
33.344100
11
6.104250
21
33.344100
0
LINE
8
Layer 1
10
33.407550
20
39.362730
11
33.662758
21
39.082794
0
LINE
8
Layer 1
10
33.662758
20
39.082794
11
33.917969
21
38.671638
0
LINE
8
Layer 1
10
33.917969
20
38.671638
11
34.173177
21
38.120514
0
LINE
8
Layer 1
10
34.173177
20
38.120514
11
34.302804
21
37.429422
0
LINE
8
Layer 1
10
34.302804
20
37.429422
11
34.302800
21
36.878300
0
LINE
8
Layer 1
10
34.302800
20
36.878300
11
34.173173
21
36.191582
0
LINE
8
Layer 1
10
34.173173
20
36.191582
11
33.917965
21
35.640458
0
LINE
8
Layer 1
10
33.917965
20
35.640458
11
33.662754
21
35.224928
0
LINE
8
Layer 1
10
33.662754
20
35.224928
11
33.407546
21
34.953740
0
LINE
8
Layer 1
10
31.872026
20
37.844950
11
31.872000
21
35.916100
0
LINE
8
Layer 1
10
31.872000
20
37.018350
11
32.001627
21
37.429506
0
LINE
8
Layer 1
10
32.001627
20
37.429506
11
32.256838
21
37.709442
0
LINE
8
Layer 1
10
32.256838
20
37.709442
11
32.512046
21
37.845036
0
LINE
8
Layer 1
10
32.512046
20
37.845036
11
32.892900
21
37.845000
0
LINE
8
Layer 1
10
30.470590
20
38.811654
11
30.470500
21
36.467200
0
LINE
8
Layer 1
10
30.470500
20
36.467200
11
30.600130
21
36.053857
0
LINE
8
Layer 1
10
30.600130
20
36.053857
11
30.851288
21
35.916076
0
LINE
8
Layer 1
10
30.851288
20
35.916076
11
31.110600
21
35.916100
0
LINE
8
Layer 1
10
30.089770
20
37.845030
11
30.981000
21
37.845000
0
LINE
8
Layer 1
10
27.918510
20
37.845000
11
27.918500
21
36.467200
0
LINE
8
Layer 1
10
27.918500
20
36.467200
11
28.048130
21
36.053857
0
LINE
8
Layer 1
10
28.048130
20
36.053857
11
28.303338
21
35.916076
0
LINE
8
Layer 1
10
28.303338
20
35.916076
11
28.688100
21
35.916100
0
LINE
8
Layer 1
10
28.688100
20
35.916100
11
28.939258
21
36.053881
0
LINE
8
Layer 1
10
28.939258
20
36.053881
11
29.324093
21
36.467224
0
LINE
8
Layer 1
10
29.324093
20
37.845034
11
29.324100
21
35.916100
0
LINE
8
Layer 1
10
26.261600
20
38.811600
11
25.240800
21
35.916100
0
LINE
8
Layer 1
10
26.261630
20
38.811690
11
27.282460
21
35.916100
0
LINE
8
Layer 1
10
25.621580
20
36.878380
11
26.901700
21
36.878300
0
LINE
8
Layer 1
10
24.730400
20
39.362730
11
24.475192
21
39.082794
0
LINE
8
Layer 1
10
24.475192
20
39.082794
11
24.219984
21
38.671638
0
LINE
8
Layer 1
10
24.219984
20
38.671638
11
23.964776
21
38.120514
0
LINE
8
Layer 1
10
23.964776
20
38.120514
11
23.835146
21
37.429422
0
LINE
8
Layer 1
10
23.835146
20
37.429422
11
23.835100
21
36.878300
0
LINE
8
Layer 1
10
23.835100
20
36.878300
11
23.964730
21
36.191582
0
LINE
8
Layer 1
10
23.964730
20
36.191582
11
24.219938
21
35.640458
0
LINE
8
Layer 1
10
24.219938
20
35.640458
11
24.475146
21
35.224928
0
LINE
8
Layer 1
10
24.475146
20
35.224928
11
24.730354
21
34.953740
0
LINE
8
Layer 1
10
20.902300
20
38.811600
11
20.902300
21
36.467200
0
LINE
8
Layer 1
10
20.902300
20
36.467200
11
21.031929
21
36.053857
0
LINE
8
Layer 1
10
21.031929
20
36.053857
11
21.283086
21
35.916076
0
LINE
8
Layer 1
10
21.283086
20
35.916076
11
21.542300
21
35.916100
0
LINE
8
Layer 1
10
20.521470
20
37.845030
11
21.412700
21
37.845000
0
LINE
8
Layer 1
10
19.371040
20
38.811654
11
19.371000
21
36.467200
0
LINE
8
Layer 1
10
19.371000
20
36.467200
11
19.500629
21
36.053857
0
LINE
8
Layer 1
10
19.500629
20
36.053857
11
19.751786
21
35.916076
0
LINE
8
Layer 1
10
19.751786
20
35.916076
11
20.011100
21
35.916100
0
LINE
8
Layer 1
10
18.990270
20
37.845030
11
19.881400
21
37.845000
0
LINE
8
Layer 1
10
17.329330
20
37.845000
11
17.078173
21
37.709406
0
LINE
8
Layer 1
10
17.078173
20
37.709406
11
16.818914
21
37.429470
0
LINE
8
Layer 1
10
16.818914
20
37.429470
11
16.693336
21
37.018314
0
LINE
8
Layer 1
10
16.693336
20
37.018314
11
16.693400
21
36.742700
0
LINE
8
Layer 1
10
16.693400
20
36.742700
11
16.818978
21
36.329357
0
LINE
8
Layer 1
10
16.818978
20
36.329357
11
17.078237
21
36.053795
0
LINE
8
Layer 1
10
17.078237
20
36.053795
11
17.329394
21
35.916014
0
LINE
8
Layer 1
10
17.329394
20
35.916014
11
17.714200
21
35.916100
0
LINE
8
Layer 1
10
17.714200
20
35.916100
11
17.969408
21
36.053881
0
LINE
8
Layer 1
10
17.969408
20
36.053881
11
18.224616
21
36.329443
0
LINE
8
Layer 1
10
18.224616
20
36.329443
11
18.350195
21
36.742786
0
LINE
8
Layer 1
10
18.350195
20
36.742786
11
18.350200
21
37.018300
0
LINE
8
Layer 1
10
18.350200
20
37.018300
11
18.224621
21
37.429456
0
LINE
8
Layer 1
10
18.224621
20
37.429456
11
17.969413
21
37.709392
0
LINE
8
Layer 1
10
17.969413
20
37.709392
11
17.714205
21
37.844986
0
LINE
8
Layer 1
10
17.714205
20
37.844986
11
17.329400
21
37.845000
0
LINE
8
Layer 1
10
14.396510
20
37.845000
11
14.396500
21
35.916100
0
LINE
8
Layer 1
10
14.396500
20
37.293910
11
14.781338
21
37.709440
0
LINE
8
Layer 1
10
14.781338
20
37.709440
11
15.036546
21
37.845034
0
LINE
8
Layer 1
10
15.036546
20
37.845034
11
15.417300
21
37.845000
0
LINE
8
Layer 1
10
15.417300
20
37.845000
11
15.676559
21
37.709406
0
LINE
8
Layer 1
10
15.676559
20
37.709406
11
15.802138
21
37.293876
0
LINE
8
Layer 1
10
15.802138
20
37.293876
11
15.802100
21
35.916100
0
LINE
8
Layer 1
10
11.974000
20
37.845000
11
11.974000
21
35.916100
0
LINE
8
Layer 1
10
11.974000
20
37.293910
11
12.358838
21
37.709440
0
LINE
8
Layer 1
10
12.358838
20
37.709440
11
12.614046
21
37.845034
0
LINE
8
Layer 1
10
12.614046
20
37.845034
11
12.994900
21
37.845000
0
LINE
8
Layer 1
10
12.994900
20
37.845000
11
13.254159
21
37.709406
0
LINE
8
Layer 1
10
13.254159
20
37.709406
11
13.379738
21
37.293876
0
LINE
8
Layer 1
10
13.379738
20
37.293876
11
13.379700
21
35.916100
0
LINE
8
Layer 1
10
10.827620
20
38.811690
11
10.953198
21
38.671722
0
LINE
8
Layer 1
10
10.953198
20
38.671722
11
11.082828
21
38.811690
0
LINE
8
Layer 1
10
11.082828
20
38.811690
11
10.953198
21
38.947284
0
LINE
8
Layer 1
10
10.953198
20
38.947284
11
10.827620
21
38.811690
0
LINE
8
Layer 1
10
10.953198
20
37.845036
11
10.953200
21
35.916100
0
LINE
8
Layer 1
10
10.062002
20
38.396160
11
9.806794
21
38.671722
0
LINE
8
Layer 1
10
9.806794
20
38.671722
11
9.421956
21
38.811690
0
LINE
8
Layer 1
10
9.421956
20
38.811690
11
8.911540
21
38.811600
0
LINE
8
Layer 1
10
8.911540
20
38.811600
11
8.530753
21
38.671632
0
LINE
8
Layer 1
10
8.530753
20
38.671632
11
8.275545
21
38.396070
0
LINE
8
Layer 1
10
8.275545
20
38.396070
11
8.275540
21
38.120500
0
LINE
8
Layer 1
10
8.275540
20
38.120500
11
8.401118
21
37.844938
0
LINE
8
Layer 1
10
8.401118
20
37.844938
11
8.530748
21
37.709344
0
LINE
8
Layer 1
10
8.530748
20
37.709344
11
8.785956
21
37.569376
0
LINE
8
Layer 1
10
8.785956
20
37.569376
11
9.551580
21
37.293814
0
LINE
8
Layer 1
10
9.551580
20
37.293814
11
9.806788
21
37.158220
0
LINE
8
Layer 1
10
9.806788
20
37.158220
11
9.932367
21
37.018252
0
LINE
8
Layer 1
10
9.932367
20
37.018252
11
10.061996
21
36.742690
0
LINE
8
Layer 1
10
10.061996
20
36.742690
11
10.062000
21
36.329400
0
LINE
8
Layer 1
10
10.062000
20
36.329400
11
9.806792
21
36.053838
0
LINE
8
Layer 1
10
9.806792
20
36.053838
11
9.421954
21
35.916057
0
LINE
8
Layer 1
10
9.421954
20
35.916057
11
8.911540
21
35.916100
0
LINE
8
Layer 1
10
8.911540
20
35.916100
11
8.530750
21
36.053800
0
LINE
8
Layer 1
10
8.530750
20
36.053800
11
8.275540
21
36.329400
0
LINE
8
Layer 1
10
7.380288
20
36.607149
11
7.254710
21
36.467181
0
LINE
8
Layer 1
10
7.254710
20
36.467181
11
7.380288
21
36.329400
0
LINE
8
Layer 1
10
7.380288
20
36.329400
11
7.509918
21
36.467181
0
LINE
8
Layer 1
10
7.509918
20
36.467181
11
7.380288
21
36.607149
0
LINE
8
Layer 1
10
6.489085
20
38.120549
11
6.359455
21
38.396111
0
LINE
8
Layer 1
10
6.359455
20
38.396111
11
6.104247
21
38.671673
0
LINE
8
Layer 1
10
6.104247
20
38.671673
11
5.849039
21
38.811641
0
LINE
8
Layer 1
10
5.849039
20
38.811641
11
5.338630
21
38.811600
0
LINE
8
Layer 1
10
5.338630
20
38.811600
11
5.083422
21
38.671632
0
LINE
8
Layer 1
10
5.083422
20
38.671632
11
4.828214
21
38.396070
0
LINE
8
Layer 1
10
4.828214
20
38.396070
11
4.698584
21
38.120508
0
LINE
8
Layer 1
10
4.698584
20
38.120508
11
4.573006
21
37.709352
0
LINE
8
Layer 1
10
4.573006
20
37.709352
11
4.573000
21
37.018300
0
LINE
8
Layer 1
10
4.573000
20
37.018300
11
4.698578
21
36.607144
0
LINE
8
Layer 1
10
4.698578
20
36.607144
11
4.828208
21
36.329395
0
LINE
8
Layer 1
10
4.828208
20
36.329395
11
5.083416
21
36.053833
0
LINE
8
Layer 1
10
5.083416
20
36.053833
11
5.338624
21
35.916052
0
LINE
8
Layer 1
10
5.338624
20
35.916052
11
5.849040
21
35.916100
0
LINE
8
Layer 1
10
5.849040
20
35.916100
11
6.104248
21
36.053881
0
LINE
8
Layer 1
10
6.104248
20
36.053881
11
6.359456
21
36.329443
0
LINE
8
Layer 1
10
6.359456
20
36.329443
11
6.489086
21
36.607192
0
LINE
8
Layer 1
10
6.489086
20
36.607192
11
6.489090
21
37.018300
0
LINE
8
Layer 1
10
5.849044
20
37.018300
11
6.489090
21
37.018300
 0 
ENDSEC
 0 
EOF